<?xml version="1.0" encoding="utf-8"?>
<!-- Generator: Adobe Illustrator 22.1.0, SVG Export Plug-In . SVG Version: 6.00 Build 0)  -->
<svg version="1.1"
	 id="svg8" inkscape:export-filename="C:\Users\Anabela\Ana\Cv\Logo.png" inkscape:export-xdpi="0" inkscape:export-ydpi="0" inkscape:version="0.92.3 (2405546, 2018-03-11)" sodipodi:docname="Logo.svg" xmlns:cc="http://creativecommons.org/ns#" xmlns:dc="http://purl.org/dc/elements/1.1/" xmlns:inkscape="http://www.inkscape.org/namespaces/inkscape" xmlns:rdf="http://www.w3.org/1999/02/22-rdf-syntax-ns#" xmlns:sodipodi="http://sodipodi.sourceforge.net/DTD/sodipodi-0.dtd" xmlns:svg="http://www.w3.org/2000/svg"
	 xmlns="http://www.w3.org/2000/svg" xmlns:xlink="http://www.w3.org/1999/xlink" x="0px" y="0px" viewBox="0 0 355.5 149.3"
	 style="enable-background:new 0 0 355.5 149.3;" xml:space="preserve">
<style type="text/css">
	.st0{fill:#FDBA57;}
	.st1{fill:#E9922D;}
	.st2{fill:#A75343;}
	.st3{fill:#4E6D81;}
	.st4{fill:#7B2346;}
	.st5{fill:#874741;}
	.st6{fill:#030303;}
</style>
<sodipodi:namedview  bordercolor="#666666" borderopacity="1.0" id="base" inkscape:current-layer="layer1" inkscape:cx="279.97472" inkscape:cy="51.242824" inkscape:document-units="mm" inkscape:pageopacity="0.0" inkscape:pageshadow="2" inkscape:window-height="1001" inkscape:window-maximized="1" inkscape:window-width="1920" inkscape:window-x="-9" inkscape:window-y="-9" inkscape:zoom="1.979899" pagecolor="#ffffff" showgrid="false">
	<inkscape:grid  id="grid1742" originx="-4.5119465e-014" originy="-0.13362894" type="xygrid"></inkscape:grid>
</sodipodi:namedview>
<g id="layer1" transform="translate(-1.594113,-3.0312)" inkscape:groupmode="layer" inkscape:label="Layer 1">
	<g id="g861" transform="translate(-36.026313,-115.06025)">
		<path id="path875" inkscape:connector-curvature="0" class="st0" d="M304.8,267.1c-3-0.8-6.4-1.9-7.7-2.6c-2.8-1.5-3.8-1.5-3.8,0
			c0,1.4-0.2,1.4-3.2,0.1c-2.8-1.2-6.3-4.9-10.9-11.5c-3.5-4.9-7.1-7.4-14.9-10.1c-4.1-1.4-6.5-1.5-49.5-1.5
			c-43.4,0-50.8,0.3-49.6,2.2c0.5,0.8-16.2,17.7-19.3,19.6c-3.3,2-6.1,2-5.5,0.1c0.5-1.4,0.4-1.4-3.8,0.1c-2.4,0.8-6.6,1.7-9.4,1.9
			c-4.6,0.4-5.1,0.3-4.6-0.9c0.4-1.1,0.1-1.2-2.3-0.8c-1.5,0.3-5.6,0.3-9.1,0c-5.8-0.5-6.4-0.7-5.9-2c0.4-1.2,0.1-1.4-1.9-1.4
			c-2.6,0-14.3-4.3-14.3-5.2c0-0.3,0.7-1.2,1.5-1.9c2-1.8,1.9-2.3-0.9-3.3l-2.4-0.8l1.7-1.8l1.7-1.8l-2.2-0.4
			c-6.7-1.4-11.9-3.1-19.9-6.6l-8.9-3.9l1.9-2l1.9-2l-2.3-0.9c-5-2.1-22.6-16.2-22.6-18.1c0-1.1,6.7-5,12.8-7.4
			c5.1-2,8.5-2.8,17.7-4.2l3-0.5l-1.7-1.4l-1.7-1.4l4.3-1c2.4-0.5,8.8-1,14.3-1l10,0l0-20.8l0-20.8l6.9,0.2l6.9,0.2l-6.6,0.3
			l-6.6,0.3v20.5v20.5l2.2,0.3c2.2,0.3,2.2,0.3,1.1-1.8c-1.1-2.1-1.1-2.1,1-1.6c9.3,2.2,16.3,4.8,25.2,9.2c6.9,3.4,10.1,4.7,9.6,3.8
			c-0.4-0.7-0.7-2-0.7-2.9c0-2.1,1.3-1.4,7.3,4l4.6,4.2h68.7c68.7,0,68.7,0,70.1-1.6c1.7-1.8,8.2-6.7,9-6.7c0.5,0,0.1,2.3-0.8,4.7
			c-0.2,0.6,3.3-0.7,8.4-3.3c8.7-4.3,18.1-7.5,25.3-8.6l3.6-0.5l-1.4,2.1l-1.4,2.1l3-0.5c1.6-0.3,4.3-0.5,5.8-0.5l2.8,0v-21.8v-21.8
			l-20.1-0.2l-20.1-0.2l20.5-0.2l20.5-0.2v22.1V197l5.8,0.5c3.2,0.3,7.9,0.9,10.6,1.3l4.8,0.8l-1.7,1.8l-1.7,1.8l2.2,0
			c6.8,0,19.6,4.4,27.7,9.5l4.4,2.7l-4,3.7c-5.2,4.7-13.6,10.8-18.2,13.1l-3.6,1.9l1.6,1.7c2,2.2,2,2.4-0.5,3.1
			c-1.1,0.3-5.1,1.8-8.8,3.4c-7.2,3.1-14.7,5.3-18,5.3c-2.4,0-2.4,0.5-0.4,2.7l1.6,1.7l-2.3,0.5l-2.3,0.5l3,3.8
			c1.7,2.1,2.9,4.2,2.7,4.6c-0.3,1-8.2,3.3-11.8,3.4c-3.2,0.1-4.9,1-4.1,2.3c0.5,0.8-0.9,0.9-6.9,0.5c-4.1-0.3-8.4-0.8-9.4-1.2
			c-1.7-0.7-1.9-0.6-1.6,0.7C311.6,268.9,311.6,268.9,304.8,267.1L304.8,267.1z M258.2,239.3c-0.4-1.4,0-1.5,3.4-1.5
			c2.6,0,4.3-0.4,5.5-1.5c1.8-1.5,1.6-1.5-50.8-1.5c-50.1,0-52.5,0-51.2,1.3c0.9,0.9,2.4,1.3,5,1.3c3.5-0.1,3.6,0,3,1.7l-0.7,1.7
			h43.1C258.2,240.8,258.6,240.8,258.2,239.3L258.2,239.3z M184.2,228.7c-0.9-0.5-1.3-1.7-1.3-3.7c0-2,0.4-3.2,1.3-3.7
			c0.7-0.4,1-0.8,0.6-0.8c-1.4,0-3.4,2.5-3.4,4.4c0,2,1.9,4.7,3.3,4.6C185.1,229.5,184.9,229.1,184.2,228.7L184.2,228.7z
			 M188.1,228.8c0.6-0.4,0.9-0.9,0.8-1.1c-0.2-0.2-1,0.1-1.8,0.7C185.4,229.6,186.3,229.9,188.1,228.8z M191.9,225
			c0-2.5-0.3-4.5-0.8-4.5c-0.4,0-0.8,2-0.8,4.5c0,2.5,0.3,4.5,0.8,4.5C191.5,229.5,191.9,227.5,191.9,225z M195.9,227.6
			c-0.9-1.4-1-2.1-0.4-2.8c1.2-1.2,1.1-3.3-0.3-3.8c-0.9-0.3-1-0.1-0.5,0.9c0.8,1.6,0.3,3.2-1.1,3.2c-0.8,0-0.7,0.6,0.6,2.3
			C196.3,230,197.7,230.3,195.9,227.6L195.9,227.6z M201.1,229c-0.6-0.2-0.9-1.9-0.9-4.4c0-2.2-0.3-4.1-0.8-4.1
			c-0.4,0-0.8,1.6-0.8,3.6c0,3.5,1,5.5,2.6,5.3C201.7,229.4,201.6,229.2,201.1,229L201.1,229z M208.4,228.6c0-0.5,1-2.3,2.3-3.9
			c2.3-3.1,2.7-4.2,1.5-4.2c-0.4,0-0.8,0.4-0.8,0.8c0,0.5-1.2,2.5-2.7,4.5c-2,2.7-2.4,3.7-1.5,3.7
			C207.9,229.5,208.4,229.1,208.4,228.6L208.4,228.6z M213.7,228.4c0-0.6-0.1-1.1-0.3-1.1s-0.5,0.5-0.7,1.1
			c-0.2,0.6-0.1,1.1,0.3,1.1C213.3,229.5,213.7,229,213.7,228.4z M221.2,225c0-2.5-0.3-4.5-0.8-4.5c-0.4,0-0.8,2-0.8,4.5
			s0.3,4.5,0.8,4.5C220.8,229.5,221.2,227.5,221.2,225z M225.3,228c-1.2-1.3-1.2-1.8-0.4-3.4c0.8-1.5,0.8-2.1,0-3
			c-0.5-0.6-1.3-1.1-1.8-1.1c-0.5,0-0.5,0.2,0.1,0.4c1.3,0.5,1.2,3.2-0.1,3.7c-0.9,0.3-0.9,0.8,0.2,2.6c0.7,1.2,1.7,2.2,2.3,2.2
			C226.4,229.5,226.3,229.2,225.3,228L225.3,228z M229.4,225c0-2.5-0.3-4.5-0.8-4.5s-0.8,2-0.8,4.5s0.3,4.5,0.8,4.5
			S229.4,227.5,229.4,225z M233.6,227.9c-1.6-2.2-1.5-4,0.3-5.8c0.8-0.8,1.2-1.5,0.8-1.5c-1.4,0-3.1,2.4-3.1,4.5
			c0,1.2,0.5,2.7,1.2,3.3C234.6,230.1,235,229.8,233.6,227.9z M242.8,228.7c-0.9-0.5-1.3-1.7-1.3-3.7c0-2,0.4-3.2,1.3-3.7
			c0.7-0.4,1-0.8,0.6-0.8c-1.4,0-3.4,2.5-3.4,4.4c0,2,1.9,4.7,3.3,4.6C243.7,229.5,243.5,229.1,242.8,228.7L242.8,228.7z
			 M246.7,228.8c0.6-0.4,0.9-0.9,0.8-1.1c-0.2-0.2-1,0.1-1.8,0.7C244,229.6,244.9,229.9,246.7,228.8L246.7,228.8z M250.8,225
			c0-2.5-0.3-4.5-0.8-4.5c-0.4,0-0.8,2-0.8,4.5c0,2.5,0.3,4.5,0.8,4.5C250.5,229.5,250.8,227.5,250.8,225z M259.6,228.3
			c0.8-0.7,1.4-2.1,1.4-3.1c0-2-1.9-4.7-3.3-4.6c-0.5,0-0.2,0.4,0.5,0.8c0.9,0.5,1.3,1.7,1.3,3.7c0,2-0.4,3.2-1.3,3.7
			c-0.7,0.4-1,0.8-0.6,0.8C257.9,229.5,258.9,229,259.6,228.3z M239.2,228c0-0.4-0.1-0.8-0.3-0.8c-0.2,0-0.5,0.3-0.8,0.8
			c-0.3,0.4-0.1,0.8,0.3,0.8C238.8,228.8,239.2,228.4,239.2,228z M254.6,225.1c0-2.9-0.2-3.5-0.9-2.9c-1.2,1-1.2,4.5,0,5.7
			c0.5,0.5,0.9,0.9,0.9,0.9C254.6,228.8,254.6,227.1,254.6,225.1L254.6,225.1z M205.2,222.2c-0.2-1.1-0.3-0.4-0.3,1.7
			c0,2.1,0.1,3,0.3,2.1C205.4,225,205.4,223.4,205.2,222.2L205.2,222.2z M188.9,222.1c0-0.4-0.6-0.9-1.2-1.1c-1-0.4-1.1-0.3-0.3,0.7
			C188.4,222.9,188.9,223.1,188.9,222.1L188.9,222.1z M207.9,221.6c0.2-0.6,0.1-1.1-0.3-1.1c-0.4,0-0.7,0.5-0.7,1.1
			c0,0.6,0.1,1.1,0.3,1.1S207.7,222.3,207.9,221.6z M247.5,222.1c0-0.4-0.6-0.9-1.2-1.1c-1-0.4-1.1-0.3-0.3,0.7
			C247,222.9,247.5,223.1,247.5,222.1L247.5,222.1z M282.3,213.3l2.1-2.6h-67.7c-54.2,0-67.6,0.2-67.1,0.9c0.3,0.5,1.1,1.7,1.7,2.6
			l1.1,1.7l63.9-0.1l63.9-0.1L282.3,213.3z M272.2,204.4c-4.2-2.3-5.4-10.2-3.2-20c0.7-2.9,1.1-5.4,0.9-5.6
			c-0.2-0.2-2.8,2.9-5.9,6.8c-7.8,10-11.1,11.7-16.2,8.6c-3.4-2.1-4.4-5-3.8-10.6c0.3-2.5,0.7-5.1,1-5.8c0.8-2.2-4.8,3-8.5,7.8
			c-1.9,2.5-4.5,5.2-5.8,6.2c-3.8,2.7-8.1,2-8.1-1.4c0-1.2,5.1-5.7,6.1-5.4c0.3,0.1,0.4-0.4,0.4-1.1c-0.1-0.7,0.3-1.2,0.8-1.1
			c0.5,0.1,0.9-0.1,0.8-0.4c-0.1-0.3,0.6-2.2,1.5-4.2c0.9-2,1.7-4.3,1.7-5.2c0-1.2-0.3-1.4-2.1-1c-2.3,0.5-4.1,2.5-8.2,8.7
			c-1.5,2.3-3,4.3-3.2,4.5c-0.3,0.2-1.1,2-2,4.1c-2.1,5.3-3.6,5.9-6.4,2.9c-1.6-1.8-2.2-3.2-2.2-5.2v-2.7l-3.3,4.5
			c-1.8,2.5-4,4.9-4.8,5.3c-5.9,3.1-10.4-3.5-8.4-12.2c0.5-2.1,0.7-3.9,0.6-4.1c-0.2-0.2-1.3,1.4-2.6,3.4c-3.7,6-7.8,9.9-10.4,9.9
			c-3.1,0-4.9-2.2-5-6.2l-0.1-3.3l-3.2,3.2c-1.7,1.8-3.7,3.2-4.4,3.2c-2.1,0-5.5-2.4-6.3-4.5c-1-2.4,0.1-10.5,1.9-13.4
			c2.4-3.9-2.6,2.2-6.1,7.6c-3.6,5.4-5.1,6.1-7.4,3.6c-1.9-2.1-1.2-6.8,2.3-16c2.9-7.6,4.1-8.9,7.1-7.4c1.8,1,2,3.2,0.4,4.5
			c-1.6,1.3-3.9,6.8-4.4,10.6l-0.5,3.3l1.3-1.9c7.9-11,11.6-15.1,13.9-15.1c4.4,0,4.9,5,1,9.7c-1.4,1.7-2.7,3.7-2.9,4.4
			c-1.8,7-2.1,8.4-1.9,9.2c0.6,1.8,10.2-7.3,12.7-12.1c2.5-4.7,6.5-8.7,9.5-9.4c2.3-0.6,5.1,1.4,6.2,4.5l0.9,2.5l1.9-1.7
			c2.3-2.1,4-2.2,5.7-0.4c1.7,1.8,1.6,3-0.6,7.8c-1.2,2.6-2.1,6.2-2.4,9.9c-0.6,7.3,0.2,7.2,5.9-0.9c3.4-4.8,4.3-6.8,5.4-11.8
			c1.9-8.7,7.3-23.4,12.6-34.1c5.3-10.8,11.4-18.1,15.1-18.1c3,0,5.5,2.9,6.1,6.9c1.6,10.8-6.8,25.8-21.2,37.5
			c-3.1,2.5-3.3,2.9-4.7,10c-1.9,9.5-1.9,10.5,0.3,7c3.7-6,11.9-13.2,15-13.2c1.9,0,4,3,4.5,6.4c0.3,1.8,0.7,3.3,1.1,3.3
			c1.6,0,5.6-4,7.4-7.3c3.8-7,7.2-10,11.2-10c8.4,0,9.4,6.5,2.2,13.4c-2.2,2.1-5.2,4.3-6.6,4.9c-2.4,1-2.7,1.5-3.5,5.4
			c-1.1,5.3-1.1,7.6-0.1,8.2c2.1,1.3,8.8-4.9,16.7-15.4c3.5-4.7,4.7-7.2,7.4-15.2c3.5-10.7,7.3-19,12.1-26.2
			c6.5-9.8,9.5-11.6,13.3-7.8c1.7,1.7,1.9,2.4,1.6,6.2c-0.5,6.9-7.9,20.7-19.3,35.7c-3.9,5.2-6.5,13.1-7.2,22.6
			c-0.4,4.7-0.2,6.4,0.6,7.5c1,1.4,1.2,1.4,3,0.2c3.8-2.5,11.9-13.8,18.8-26.7c3.3-6.1,4.5-7.6,7.6-9.5c3.4-2.1,3.8-2.1,5.6-1.1
			c1.6,0.9,2.4,1.9,4.4,5.8c0.1,0.1,1.1-0.5,2.4-1.4c2.5-1.9,4.9-1.5,6.2,0.8c0.6,1.2,0.4,2.4-1,5.4c-1.9,4.1-4.2,15.9-3.3,16.8
			c0.9,0.9,3.4-2,8.8-10c4.9-7.2,6.7-9.1,6.7-6.9c0,2-7.3,14.5-10.7,18.3c-2.9,3.2-4.2,4.1-5.9,4.1c-2.5,0-4.9-2.1-5.7-4.9
			c-0.5-2.1,0-9.6,0.8-12c0.3-0.8-0.7,0.4-2.3,2.6c-4.8,7-8.6,10.5-11.4,10.5c-2.5,0-3.7-1.2-4.7-5.1c-0.4-1.6-0.8-1.3-3.6,3
			c-4.9,7.4-9.6,12.8-12.9,14.7C275.7,205.7,274.9,205.8,272.2,204.4L272.2,204.4z M184.9,183.9c5.3-6.6,8.4-11.8,8.1-13.3
			c-0.4-1.7-0.9-4.2-1-5.1c-0.1-1.1-1.5-0.6-3,1.1c-1.7,1.8-5.6,11.5-6.4,15.8C182,185.5,183,186.2,184.9,183.9L184.9,183.9z
			 M308.4,179c4.4-6,4.5-6.3,4.1-9.6c-0.6-4.4-1.5-5.2-3.3-3.4c-3.3,3.3-8.3,19.1-6.1,19.1C303.4,185.2,305.9,182.4,308.4,179
			L308.4,179z M245.7,181.3c-0.2-0.5-0.4-0.1-0.4,0.9c0,1,0.2,1.5,0.4,0.9C245.9,182.6,245.9,181.8,245.7,181.3L245.7,181.3z
			 M258.4,171.3c2.7-2.7,3.4-3.9,3.4-6c0-3.3-1.4-3.4-3.5-0.2c-2.4,3.6-4.8,9.6-4,9.6C254.7,174.7,256.5,173.2,258.4,171.3
			L258.4,171.3z M286.7,156.9c1.4-2.5,3.7-6.8,5.2-9.4c6.2-11.1,9-21.9,4.2-16.6c-1.9,2.1-6.9,13.3-10.3,23.1
			C282.5,163.6,282.7,164.3,286.7,156.9z M234.4,148.7c3-3.8,5.5-7.9,6.4-10.6c1.5-4.3,2-12.6,0.9-14.4c-1-1.6-5.8,4.1-8.4,9.9
			c-2.4,5.3-9.8,24.7-9.8,25.6C223.4,160.7,230.1,154.3,234.4,148.7L234.4,148.7z M136.7,197.8c-1.4-1.4-2.8-3.7-3.2-5.2
			c-0.8-2.9-0.1-14.7,1.2-20.7c0.4-1.8,0.6-3.1,0.5-3c-0.1,0.1-3,4.4-6.4,9.5c-6.9,10.5-9.2,12.9-12,12.9c-3.8,0-8.3-6.6-8.3-12.2
			c0-12.7,14.2-40.6,23.6-46.5c3.4-2.1,7.8-1.4,12.8,2c5,3.5,5.6,4.8,3,7c-2.4,2-3.7,1.4-4.5-2.2c-0.6-2.8-1.9-3.3-4.6-1.9
			c-8.9,4.8-17.7,21-21.7,40c-0.7,3.2-0.9,6.1-0.6,6.4c1.3,1.3,9.2-8.2,19-22.9c6.9-10.4,10.7-15.3,11.7-15.4
			c0.8-0.1,2.3,0.4,3.3,1.3c1.8,1.5,1.8,1.5,0.5,3.6c-2.4,3.9-5.8,11.5-7.3,16.3c-3.1,9.9-4.6,28.2-2.4,28.2c0.4,0,1.8-1.4,3.2-3
			c4-4.7,5.5-3.7,3.1,2.1C145.1,200.7,141,202,136.7,197.8L136.7,197.8z"/>
		<path id="path873" inkscape:connector-curvature="0" class="st1" d="M304.6,266.8c-1.9-0.5-5-1.7-7-2.6c-4.5-2-4.9-2-4.4-0.1
			c1.1,4.1-8-2.9-12.7-9.8c-1.3-1.9-3.9-5.1-5.9-7.3c-3.7-4-4.7-6.1-2.3-5.1c3.4,1.4,4.2,1.2,9.7-2.5c6.1-4.1,6.6-4.8,1.7-2.3
			c-6.1,3.1-18.3,5.3-16.9,3.1c0.2-0.3,3-1.4,6.2-2.4l5.9-1.8l-5.6-0.5c-7.5-0.6-107.3-0.6-113.1,0l-4.5,0.5l4.7,1.4
			c7.4,2.3,5.8,4.4-1.8,2.4c-2.4-0.6-4.5-1-4.6-0.9c-0.1,0.1,1,1.4,2.4,2.8c2.1,2,3.3,2.5,5.6,2.6c1.6,0,3,0.1,3,0.2
			c0,0.1-4,4.2-8.9,9.2c-5.2,5.3-10,9.5-11.6,10.2c-3.5,1.5-3.5,1.4-3.5-0.4c0-0.8-0.1-1.5-0.2-1.5c-0.1,0-2.3,0.7-4.8,1.5
			c-6.2,1.9-14.5,2.9-13.2,1.5c0.5-0.5,0.9-1.2,0.9-1.4c0-0.2-4.3-0.3-9.5-0.2c-9.2,0.2-9.4,0.2-8.7-1.2c0.7-1.3,0.5-1.5-2.2-1.9
			c-3.6-0.6-13.5-4.2-13.5-4.9c0-1.4,5.8-7.1,9.8-9.5c3-1.9,4.2-3,3.6-3.4c-1.1-0.7,6.9-4.6,12.3-6c2.3-0.6,3.6-1.3,3.3-1.8
			c-0.5-1.2,3-1.8,10.5-1.8h6.3v-2.2c0-1.8-0.5-2.5-2.9-3.7c-2.9-1.5-13.9-4.6-16.2-4.6c-0.7,0-3.5,1.1-6.3,2.4
			c-4.5,2.1-12.9,4.7-12.9,3.9c0-0.2,3.1-1.9,6.9-3.8c6.3-3.2,6.8-3.6,5.2-4.2c-1.8-0.7-13.7-2.9-15.5-2.9c-0.5,0-2.8,1.2-5,2.8
			c-3.9,2.7-9.5,5.1-10.2,4.4c-0.2-0.2,2-1.9,4.8-3.8c2.8-1.9,4.9-3.4,4.6-3.4c-0.3,0-5-0.7-10.5-1.5s-10.5-1.5-11.1-1.6
			c-0.6-0.1-0.1-0.4,1.1-0.7c3-0.8,13.4-0.8,17.9-0.1l3.6,0.6l-2.2-2.3c-2.3-2.5-5.4-6.8-5.4-7.5c0-0.2,2.9,1.9,6.4,4.7
			c6.3,5.1,6.5,5.1,11.8,5.6c3,0.2,6.9,0.9,8.6,1.6s3.2,0.9,3.2,0.7c0-0.2-0.8-2.8-1.9-5.6c-2.3-6.4-1.2-6,2.2,0.8l2.6,5.1l5.1,1.4
			c2.8,0.8,7.5,2.3,10.4,3.5c2.9,1.2,5.3,2.1,5.4,2.1c0.1,0,0.2-1.4,0.2-3.1c0-5.6-6.9-5.2,84.1-5.2c89.6,0,84.1-0.3,84.1,4.3v2.2
			l6.8-1.6l6.8-1.6l2.2-4.1c1.2-2.3,2.8-4.8,3.4-5.6c1.2-1.5,1.2-1.5,0.7,0.4c-0.3,1-1.3,3.7-2.3,5.9l-1.8,4l1.7-0.5
			c4.1-1.3,10.9-2.6,13.6-2.6c2.4,0,4-0.8,8.6-4.4c3.1-2.4,6.2-4.7,6.8-5c1.3-0.8-2.2,4.2-5.3,7.5l-2.1,2.3l9.9-0.2
			c14.1-0.3,16.3,0.8,3.8,2c-14.3,1.4-13.9,1.1-8.4,5.2c2.6,1.9,4.3,3.6,3.8,3.7c-1,0.3-6.9-2.7-10.8-5.5c-2.4-1.7-3.1-1.9-7.5-1.5
			c-5.5,0.5-12.8,2-12.8,2.7c0,0.3,3.1,2,6.8,3.8c3.7,1.8,6.4,3.5,6,3.6c-1.2,0.4-8-2-13.2-4.6c-3.8-1.9-5-2.2-8.3-1.8
			c-2.1,0.2-4.9,0.8-6.2,1.3c-2.2,0.8-2.4,1.1-2.4,4c0,1.7-0.4,3.6-0.9,4.1c-0.7,0.7,0,0.9,3.3,0.9c5.7,0,13,1.5,12,2.5
			c-0.5,0.5,0.5,1.3,3.3,2.4c5.9,2.4,11.9,6.4,11,7.3c-0.5,0.5,0.2,1.4,2.2,2.8c2.8,1.9,8.2,7.8,9.7,10.6c0.6,1.1,0.1,1.5-3.6,2.6
			c-2.4,0.7-6.3,1.4-8.7,1.7c-3.8,0.3-4.3,0.6-3.9,1.8c0.4,1.3,0.1,1.4-4.3,1c-8.3-0.7-10.8-1-12.2-1.6c-1.1-0.4-1.3-0.3-0.9,0.7
			C311.4,268.1,309.6,268.2,304.6,266.8L304.6,266.8z M184.2,228.7c-0.9-0.5-1.3-1.7-1.3-3.7c0-2,0.4-3.2,1.3-3.7
			c0.7-0.4,1-0.8,0.6-0.8c-1.4,0-3.4,2.5-3.4,4.4c0,2,1.9,4.7,3.3,4.6C185.1,229.5,184.9,229.1,184.2,228.7L184.2,228.7z
			 M188.1,228.8c0.6-0.4,0.9-0.9,0.8-1.1c-0.2-0.2-1,0.1-1.8,0.7C185.4,229.6,186.3,229.9,188.1,228.8z M191.9,225
			c0-2.5-0.3-4.5-0.8-4.5c-0.4,0-0.8,2-0.8,4.5c0,2.5,0.3,4.5,0.8,4.5C191.5,229.5,191.9,227.5,191.9,225z M195.9,227.6
			c-0.9-1.4-1-2.1-0.4-2.8c1.2-1.2,1.1-3.3-0.3-3.8c-0.9-0.3-1-0.1-0.5,0.9c0.8,1.6,0.3,3.2-1.1,3.2c-0.8,0-0.7,0.6,0.6,2.3
			C196.3,230,197.7,230.3,195.9,227.6L195.9,227.6z M201.1,229c-0.6-0.2-0.9-1.9-0.9-4.4c0-2.2-0.3-4.1-0.8-4.1
			c-0.4,0-0.8,1.6-0.8,3.6c0,3.5,1,5.5,2.6,5.3C201.7,229.4,201.6,229.2,201.1,229L201.1,229z M208.4,228.6c0-0.5,1-2.3,2.3-3.9
			c2.3-3.1,2.7-4.2,1.5-4.2c-0.4,0-0.8,0.4-0.8,0.8c0,0.5-1.2,2.5-2.7,4.5c-2,2.7-2.4,3.7-1.5,3.7
			C207.9,229.5,208.4,229.1,208.4,228.6L208.4,228.6z M213.7,228.4c0-0.6-0.1-1.1-0.3-1.1s-0.5,0.5-0.7,1.1
			c-0.2,0.6-0.1,1.1,0.3,1.1S213.7,229,213.7,228.4z M221.2,225c0-2.5-0.3-4.5-0.8-4.5c-0.4,0-0.8,2-0.8,4.5s0.3,4.5,0.8,4.5
			C220.8,229.5,221.2,227.5,221.2,225z M225.3,228c-1.2-1.3-1.2-1.8-0.4-3.4c0.8-1.5,0.8-2.1,0-3c-0.5-0.6-1.3-1.1-1.8-1.1
			c-0.5,0-0.5,0.2,0.1,0.4c1.3,0.5,1.2,3.2-0.1,3.7c-0.9,0.3-0.9,0.8,0.2,2.6c0.7,1.2,1.7,2.2,2.3,2.2
			C226.4,229.5,226.3,229.2,225.3,228L225.3,228z M229.4,225c0-2.5-0.3-4.5-0.8-4.5s-0.8,2-0.8,4.5s0.3,4.5,0.8,4.5
			S229.4,227.5,229.4,225z M233.6,227.9c-1.6-2.2-1.5-4,0.3-5.8c0.8-0.8,1.2-1.5,0.8-1.5c-1.4,0-3.1,2.4-3.1,4.5
			c0,1.2,0.5,2.7,1.2,3.3C234.6,230.1,235,229.8,233.6,227.9z M242.8,228.7c-0.9-0.5-1.3-1.7-1.3-3.7c0-2,0.4-3.2,1.3-3.7
			c0.7-0.4,1-0.8,0.6-0.8c-1.4,0-3.4,2.5-3.4,4.4c0,2,1.9,4.7,3.3,4.6C243.7,229.5,243.5,229.1,242.8,228.7L242.8,228.7z
			 M246.7,228.8c0.6-0.4,0.9-0.9,0.8-1.1c-0.2-0.2-1,0.1-1.8,0.7C244,229.6,244.9,229.9,246.7,228.8L246.7,228.8z M250.8,225
			c0-2.5-0.3-4.5-0.8-4.5c-0.4,0-0.8,2-0.8,4.5c0,2.5,0.3,4.5,0.8,4.5C250.5,229.5,250.8,227.5,250.8,225z M259.6,228.3
			c0.8-0.7,1.4-2.1,1.4-3.1c0-2-1.9-4.7-3.3-4.6c-0.5,0-0.2,0.4,0.5,0.8c0.9,0.5,1.3,1.7,1.3,3.7c0,2-0.4,3.2-1.3,3.7
			c-0.7,0.4-1,0.8-0.6,0.8C257.9,229.5,258.9,229,259.6,228.3z M239.2,228c0-0.4-0.1-0.8-0.3-0.8c-0.2,0-0.5,0.3-0.8,0.8
			c-0.3,0.4-0.1,0.8,0.3,0.8C238.8,228.8,239.2,228.4,239.2,228z M254.6,225.1c0-2.9-0.2-3.5-0.9-2.9c-1.2,1-1.2,4.5,0,5.7
			c0.5,0.5,0.9,0.9,0.9,0.9C254.6,228.8,254.6,227.1,254.6,225.1L254.6,225.1z M205.2,222.2c-0.2-1.1-0.3-0.4-0.3,1.7
			c0,2.1,0.1,3,0.3,2.1C205.4,225,205.4,223.4,205.2,222.2L205.2,222.2z M188.9,222.1c0-0.4-0.6-0.9-1.2-1.1c-1-0.4-1.1-0.3-0.3,0.7
			C188.4,222.9,188.9,223.1,188.9,222.1L188.9,222.1z M207.9,221.6c0.2-0.6,0.1-1.1-0.3-1.1c-0.4,0-0.7,0.5-0.7,1.1
			c0,0.6,0.1,1.1,0.3,1.1S207.7,222.3,207.9,221.6z M247.5,222.1c0-0.4-0.6-0.9-1.2-1.1c-1-0.4-1.1-0.3-0.3,0.7
			C247,222.9,247.5,223.1,247.5,222.1L247.5,222.1z M192.4,241c12.5-0.1,33-0.1,45.5,0c12.5,0.1,2.3,0.2-22.7,0.2
			S179.9,241.1,192.4,241z M182.3,210.2c18.9-0.1,49.8-0.1,68.7,0c18.9,0.1,3.4,0.2-34.4,0.2S163.4,210.3,182.3,210.2z M272.2,204.4
			c-4.2-2.3-5.4-9.4-3.2-19.6c0.6-3.1,1-5.8,0.9-6c-0.2-0.2-2.8,2.9-5.8,6.9c-8.5,11-12.1,12.4-17.5,7.1l-3-3l0.5-4.7
			c0.3-2.6,0.7-5.5,1-6.5l0.5-1.9l-2.7,2.2c-1.5,1.2-4.4,4.4-6.6,7.1s-4.8,5.5-5.9,6.2c-3.5,2.3-7.6,1.4-7.6-1.6
			c0-1.2,5-5.7,6.4-5.7c0.4,0,0.7-0.6,0.5-1.3c-0.1-0.7,0.1-1.4,0.5-1.7c1.1-0.6,3.8-7,3.8-8.8c0-1.2-0.3-1.4-2.1-1
			c-2.3,0.6-4.4,2.7-8.3,8.7c-1.5,2.3-2.9,4.3-3.2,4.5c-0.3,0.2-1.1,2-1.9,3.9c-1.7,4.5-2.8,5.5-4.8,4.4c-2.3-1.2-3.8-3.9-3.8-6.7
			v-2.5l-3.3,4.5c-1.8,2.5-4,4.9-4.8,5.3c-5.9,3.1-10.3-3.2-8.4-12c0.5-2.2,0.7-4.1,0.5-4.2s-1.3,1.3-2.6,3.3
			c-3.8,6.2-7.9,10-10.6,10c-2.9,0-4.9-2.7-5-6.8l0-2.8l-3.2,3.3c-1.7,1.8-3.7,3.3-4.4,3.3c-2,0-5.4-2.4-6.3-4.3
			c-1.1-2.3-0.3-8.6,1.5-12.6l1.4-3l-2.3,2.6c-1.3,1.4-3.6,4.7-5.3,7.3c-3.2,5-4.8,5.7-7,3.2c-1.8-2-1.2-6.4,2.3-15.9
			c2.8-7.7,4.1-9,7-7.4c1.8,1,2,3.2,0.4,4.5c-1.6,1.3-3.9,6.7-4.4,10.6c-0.5,3.7-0.8,3.9,4.7-3.6c4.6-6.4,8.3-10,10.2-10
			c4.5,0,4.7,4.7,0.4,10.2c-1.7,2.2-3.2,4.8-3.3,5.7c-0.1,1-0.5,3.2-0.8,5c-0.5,3.1-0.5,3.2,0.9,2.5c3-1.6,10.5-9.7,12.7-13.7
			c2.9-5.4,7.6-8.8,10.6-7.8c1.4,0.5,2.7,1.8,3.8,4c1.3,2.5,1.8,3,2.2,2.1c0.3-0.7,1.5-1.7,2.7-2.2c1.9-0.8,2.4-0.7,3.7,0.4
			c1.9,1.7,1.8,2.9-0.1,7.1c-1.6,3.5-3.9,14.8-3.3,15.8c0.8,1.3,2.5-0.3,6.5-5.9c3.4-4.8,4.3-6.8,5.4-11.8
			c2.3-10.4,8.6-27.1,14.4-37.7c4.1-7.6,9.5-13.6,12.8-14.2c3.1-0.6,5.9,2.2,6.5,6.7c1.6,10.9-6.8,25.7-21.2,37.4
			c-3.1,2.5-3.3,2.9-4.7,10c-2,9.9-1.9,10.5,1,6.1c3.3-4.9,10.3-11.4,12.9-12.1c2.8-0.7,5.3,2.2,6,6.8l0.5,3.4l3.1-2.2
			c2-1.4,3.8-3.6,4.9-6c2.5-5.3,7.5-9.8,10.9-9.8c5.4,0,8,2.7,6.9,7.2c-0.7,2.8-5.5,7.7-9.9,10.2c-3.7,2.1-3.9,2.4-4.7,6.4
			c-1.5,7.5-0.9,9.4,2.3,7.7c3.8-2,6.9-5.2,12.5-12.7c5.4-7.2,6.2-8.8,9.5-18.4c4-11.6,6.2-16.4,11.4-24.6c6.4-10,9.3-12,13.2-8.9
			c1.5,1.2,1.8,2.1,1.8,6.2c0,4-0.5,5.8-2.8,10.7c-2.6,5.5-12.1,20.3-17.3,27c-4.3,5.6-8.1,25.2-5.6,28.6c1,1.4,1.2,1.4,3,0.2
			c3-2,8.5-9.2,14.1-18.6c2.8-4.7,6.1-10.2,7.3-12.3c1.5-2.6,3.3-4.3,5.6-5.6c3.3-1.8,3.4-1.8,5.4-0.5c1.1,0.7,2.4,2.2,2.9,3.3
			c0.5,1.1,0.9,2.1,1,2.3c0.1,0.1,1.2-0.5,2.4-1.4c2.5-1.8,4.9-1.5,6.2,0.8c0.6,1.1,0.3,2.4-1,5.4c-1.9,4.2-4.1,16-3.3,16.9
			c0.9,0.9,4.1-2.8,9.2-10.4c4.5-6.7,6.3-8.6,6.3-6.6c0,1.1-4.4,9.6-7,13.5c-5.1,7.6-8.5,10-12.2,8.5c-3-1.2-4.4-8.6-2.7-14.5
			c1.1-3.8,0.5-3.6-2.2,0.9c-3.8,6.3-8.1,10.4-11,10.4c-2.5,0-3.7-1.2-4.7-5.2c-0.5-1.8-0.6-1.7-2.8,1.8
			c-5.7,9.2-14.1,17.7-17.5,17.6C274.7,205.4,273.2,204.9,272.2,204.4L272.2,204.4z M245,185.1c-0.2-0.6-0.4-0.4-0.5,0.5
			c0,0.8,0.1,1.2,0.4,1C245.2,186.3,245.2,185.6,245,185.1L245,185.1z M308.4,179c4.4-5.9,4.5-6.2,4-9.5c-0.7-4.4-1.5-5.3-3.4-3.3
			c-3.3,3.3-8.9,21.3-6,19.5C303.5,185.3,306,182.3,308.4,179z M188.8,178.7c3.4-4.7,4.5-6.9,4.2-8.1c-0.4-1.7-0.9-4.2-1-5.1
			c-0.1-1-1.5-0.6-3,0.9c-1.6,1.6-5.6,11.7-6.4,16.1C181.7,187,183.7,185.9,188.8,178.7z M245.7,181.3c-0.2-0.5-0.4-0.1-0.4,0.9
			c0,1,0.2,1.5,0.4,0.9C245.9,182.6,245.9,181.8,245.7,181.3L245.7,181.3z M258.4,171.3c2.7-2.7,3.4-3.9,3.4-6
			c0-3.1-1.3-3.4-3.2-0.8c-2,2.7-5.1,10.2-4.3,10.2C254.7,174.7,256.5,173.2,258.4,171.3L258.4,171.3z M285.9,158.3
			c1.4-2.4,2.9-5,3.4-5.8c2.5-4.1,7.7-15.4,8.6-18.6c1.9-7.1-1.1-5.3-5.4,3.3c-2.6,5.3-10.1,25.4-9.4,25.4
			C283.3,162.7,284.5,160.7,285.9,158.3z M229.9,154.3c5.2-5.6,10-12.9,11.2-17c1.3-4.6,1.6-12.7,0.5-13.9c-0.9-0.9-4.8,3.1-6.9,7.1
			c-2.4,4.5-11.3,27.4-11.3,29C223.4,160.1,227.6,156.7,229.9,154.3z M139.3,199.7c-1.8-0.7-3.8-2.7-5.1-5.1
			c-1.4-2.7-1.4-12.3,0.1-20.5c0.5-3,0.9-5.4,0.8-5.3c-0.1,0.1-2.8,4.2-6.1,9.2c-8.5,12.8-10.5,14.5-14.6,12.3
			c-2.8-1.5-5.9-7.4-5.9-11.2c0-11.4,12.1-36.8,21.4-44.9c4.8-4.2,9.2-4.1,15.3,0.5c4.8,3.5,5.2,4.6,2.7,6.8c-2.4,2-3.7,1.4-4.5-2.2
			c-0.6-2.9-1.9-3.3-5-1.7c-3.4,1.7-7.7,6.5-11.2,12.5c-2.9,5-6.9,14.1-7.9,18.2c-0.4,1.6-0.7,1.9-1.2,1.1c-0.5-0.7-0.6-0.5-0.3,0.8
			c0.2,1-0.1,4.3-0.7,7.5c-0.6,3.2-0.8,6-0.4,6.3c1.3,1.3,8.6-7.5,18.3-22c5.4-8.1,10.3-15.1,10.8-15.7c1.3-1.4,4.6-0.5,5.6,1.5
			c0.7,1.3,0.4,2.1-1.4,4.9c-3.1,4.6-6.6,14.8-8.1,23.1c-1.3,7.6-1.8,18-0.8,19c0.3,0.3,2-0.8,3.6-2.6c1.6-1.8,3.3-3.2,3.7-3.2
			c2.1,0-1,8.1-3.9,10C142.7,200.2,141.3,200.4,139.3,199.7z M134.5,184.3c-0.2-0.6-0.4-0.4-0.5,0.5c0,0.8,0.1,1.2,0.4,1
			C134.7,185.5,134.8,184.9,134.5,184.3L134.5,184.3z M118.8,166.3c-0.2-0.6-0.4-0.4-0.5,0.5c0,0.8,0.1,1.2,0.4,1
			C119,167.5,119,166.8,118.8,166.3L118.8,166.3z M341.4,175.4v-21.8l-20.1-0.2l-20.1-0.2l20.5-0.2l20.5-0.2v22.2
			c0,12.2-0.2,22.2-0.4,22.2C341.5,197.2,341.4,187.4,341.4,175.4L341.4,175.4z M97.4,174.1l-0.2-21.2l6.9,0.2l6.9,0.2l-6.6,0.3
			l-6.6,0.3l-0.2,20.8l-0.2,20.8L97.4,174.1z"/>
		<path id="path871" inkscape:connector-curvature="0" class="st2" d="M319.6,256.4c-0.8-0.9-1.7-2.3-2-3c-0.6-1.8-3.8-3.4-7.9-4.1
			l-3.2-0.5l2.6,3.2c1.9,2.4,2.2,3,1,2.4c-0.9-0.5-2.6-2.2-3.9-3.8c-1.9-2.4-3-3-6.6-3.8c-2.4-0.5-5.6-0.9-7.3-0.9h-3l2.2,2.4
			c1.2,1.3,2.9,3.3,3.7,4.2l1.5,1.8l-2-1.3c-1.1-0.7-2.9-2.4-3.9-3.8c-1.8-2.4-2.1-2.5-7.9-2.8c-3.6-0.2-6.4-0.7-7-1.3
			c-0.8-0.8-0.1-0.9,3.8-0.5l4.7,0.5l3.4-3.3c2.9-2.8,3.2-2.9,1.8-0.9c-0.9,1.3-1.6,2.6-1.6,2.8c0,0.2,2.5,0.5,5.4,0.5
			c3,0,6.9,0.4,8.7,0.8c3,0.7,3.5,0.6,5.9-1.2c3.2-2.4,4.1-2,1.1,0.6l-2.2,1.8l5.4,1.3c4.5,1.1,5.9,1.2,8.6,0.5
			c4.3-1.1,4.8-0.5,1.1,1.4c-1.6,0.8-2.4,1.5-1.8,1.6c1.3,0,10.5,4.3,10.5,4.8c0,0.2-2.4-0.5-5.4-1.5c-3-1-5.7-1.8-6-1.8
			c-0.3,0,0.1,1.2,1,2.6C322.2,258.4,321.9,258.8,319.6,256.4L319.6,256.4z M114.6,251.9l1.7-2.4l-3,0.5c-1.6,0.3-4.1,0.7-5.6,0.9
			c-2.6,0.4-2.6,0.4-0.8-0.7c1-0.6,3.5-1.5,5.5-2l3.6-0.9l-2.9-1.8c-3.4-2.1-2.6-2.3,2.2-0.6c2.7,0.9,4.1,1,6.3,0.4
			c1.6-0.4,3.9-0.8,5.1-0.8l2.2,0l-2.2-2.3c-2.6-2.7-1.7-3,1.1-0.4c1.8,1.7,2.6,1.8,11.1,2.1c5.1,0.1,9.2,0.1,9.2-0.1
			c0-0.2-0.5-1-1.1-1.8c-0.6-0.8-1.1-1.8-1.1-2.1c0-1.2,1.5,0.3,3.4,3.3l1.9,2.9l5.1,0c3.7,0,4.8,0.2,3.9,0.8
			c-0.6,0.4-3.9,0.7-7.2,0.6c-5.9-0.2-6.1-0.1-9.4,2.5c-5.2,4.1-6,4.2-1.5,0l4.1-3.7l-2.5-0.5c-1.4-0.3-4.6-0.3-7.3,0
			c-4.1,0.4-5.2,0.9-7.6,3.2c-4.1,3.9-6.3,4.7-2.9,1.1l3-3.1l-2.2,0c-4.2,0-7.8,1.5-9.8,4.1C114.5,254.3,112.3,255.2,114.6,251.9
			L114.6,251.9z M192.5,241c12.5-0.1,32.8-0.1,45.1,0c12.3,0.1,2,0.2-22.8,0.2C190,241.2,180,241.1,192.5,241L192.5,241z M267,240.8
			c-1.3-0.8-2-0.5,7.5-3.6l6.4-2.1l-31.7-0.2c-17.4-0.1-46.2-0.1-63.9,0l-32.2,0.2l5.3,1.8c6.4,2.2,6.8,2.4,5.7,3.1
			c-1.6,1-9.4-1.2-14-3.8c-4.8-2.8-6.3-3.5-9.5-4.5c-1.9-0.6-2-0.5-1.2,0.9c0.8,1.4,0.7,1.5-0.9,1.1c-1-0.3-2.1-0.5-2.5-0.5
			c-0.4,0-0.7-1.3-0.5-2.9c0.3-2.8,0.2-2.9-2.8-4.1c-4.6-1.8-13.6-4.2-15.9-4.2c-1.1,0-4.5,1.2-7.5,2.6c-3,1.4-6.9,2.8-8.5,3
			c-2.6,0.4-2-0.1,4.1-3.1l7.1-3.5l-3.4-1c-1.9-0.6-5.9-1.4-9-1.9c-6.1-0.9-6.5-0.8-12.5,3.3c-1.6,1.1-4.1,2.3-5.5,2.5
			c-2.5,0.4-2.3,0.3,2.2-2.8c5.7-3.8,5.8-3.7-7.4-5.5c-5.2-0.7-9.5-1.4-9.6-1.5c-0.7-0.7,13.1-1,17.1-0.4c2.7,0.4,5.2,0.7,5.5,0.7
			c0.4,0-1.3-2.1-3.6-4.6c-2.3-2.5-4.1-4.7-3.9-4.9c0.2-0.2,3.1,1.9,6.4,4.6c5.2,4.2,6.5,4.9,9.1,4.9c3.8,0,10.3,1.4,13.1,2.8
			c2,1,2.1,1,1.6-0.3c-4.5-11.4-4.3-13.1,0.4-3.9c2,3.8,2.5,4.4,5.4,5.1c3.1,0.8,13.8,4.4,16.5,5.6c1.1,0.5,1.3,0.1,1.3-2.6
			c0-1.7,0.5-3.6,1.1-4.2c0.9-0.9,13-1.1,83.1-1.1c90,0,84.1-0.3,84.1,4.5c0,1.6,0.3,2.3,0.9,2c0.5-0.2,3.6-1,6.8-1.7
			c5.8-1.4,5.9-1.4,7.6-4.8c1-1.9,2.4-4.3,3.3-5.3c1.3-1.6,1.2-1.1-0.7,3.7c-1.2,3.1-2.2,5.6-2.2,5.7c0,0.1,1.9-0.5,4.3-1.2
			s6.6-1.5,9.3-1.8c4.6-0.4,5.4-0.8,10.8-4.9c3.2-2.5,5.9-4.5,6.1-4.5c0.8,0-0.1,1.3-3.8,5.2l-4.1,4.3l9.9-0.3
			c14.3-0.5,16.3,0.8,3.4,2c-5.6,0.5-10.5,1.2-11,1.5c-0.6,0.3,0.6,1.6,3.3,3.4c5,3.4,5.7,4.3,2.7,3.4c-2.9-0.8-4.5-1.7-8-4.6
			c-3-2.4-3.1-2.4-9-2c-3.3,0.2-7.7,0.9-9.8,1.5l-3.8,1l7,3.6c3.8,2,6.8,3.8,6.7,3.9c-0.5,0.5-10.9-3.3-13.8-5.1
			c-2.2-1.4-3.4-1.6-7.3-1.2c-7.5,0.7-8.7,1.4-8.7,5.1c0,3.7-1.3,5.2-4.5,5.2c-2,0-2.3-0.2-1.5-1.1c0.7-0.9,0.7-1.1,0-1.1
			c-1.7,0-9.2,2.4-15.4,4.9c-3.3,1.3-7.4,2.7-9,2.9c-1.7,0.3-3.5,0.6-4.1,0.8C268.6,241.4,267.6,241.2,267,240.8L267,240.8z
			 M184.2,228.7c-0.9-0.5-1.3-1.7-1.3-3.7c0-2,0.4-3.2,1.3-3.7c0.7-0.4,1-0.8,0.6-0.8c-1.4,0-3.4,2.5-3.4,4.4c0,2,1.9,4.7,3.3,4.6
			C185.1,229.5,184.9,229.1,184.2,228.7L184.2,228.7z M188.1,228.8c0.6-0.4,0.9-0.9,0.8-1.1c-0.2-0.2-1,0.1-1.8,0.7
			C185.4,229.6,186.3,229.9,188.1,228.8z M191.9,225c0-2.5-0.3-4.5-0.8-4.5c-0.4,0-0.8,2-0.8,4.5s0.3,4.5,0.8,4.5
			C191.5,229.5,191.9,227.5,191.9,225z M195.9,227.6c-0.9-1.4-1-2.1-0.4-2.8c1.2-1.2,1.1-3.3-0.3-3.8c-0.9-0.3-1-0.1-0.5,0.9
			c0.8,1.6,0.3,3.2-1.1,3.2c-0.8,0-0.7,0.6,0.6,2.3C196.3,230,197.7,230.3,195.9,227.6L195.9,227.6z M201.1,229
			c-0.6-0.2-0.9-1.9-0.9-4.4c0-2.2-0.3-4.1-0.8-4.1c-0.4,0-0.8,1.6-0.8,3.6c0,3.5,1,5.5,2.6,5.3C201.7,229.4,201.6,229.2,201.1,229
			L201.1,229z M208.4,228.6c0-0.5,1-2.3,2.3-3.9c2.3-3.1,2.7-4.2,1.5-4.2c-0.4,0-0.8,0.4-0.8,0.8c0,0.5-1.2,2.5-2.7,4.5
			c-2,2.7-2.4,3.7-1.5,3.7C207.9,229.5,208.4,229.1,208.4,228.6L208.4,228.6z M213.7,228.4c0-0.6-0.1-1.1-0.3-1.1s-0.5,0.5-0.7,1.1
			c-0.2,0.6-0.1,1.1,0.3,1.1C213.3,229.5,213.7,229,213.7,228.4z M221.2,225c0-2.5-0.3-4.5-0.8-4.5c-0.4,0-0.8,2-0.8,4.5
			c0,2.5,0.3,4.5,0.8,4.5C220.8,229.5,221.2,227.5,221.2,225z M225.3,228c-1.2-1.3-1.2-1.8-0.4-3.4c0.8-1.5,0.8-2.1,0-3
			c-0.5-0.6-1.3-1.1-1.8-1.1c-0.5,0-0.5,0.2,0.1,0.4c1.3,0.5,1.2,3.2-0.1,3.7c-0.9,0.3-0.9,0.8,0.2,2.6c0.7,1.2,1.7,2.2,2.3,2.2
			C226.4,229.5,226.3,229.2,225.3,228L225.3,228z M229.4,225c0-2.5-0.3-4.5-0.8-4.5c-0.4,0-0.8,2-0.8,4.5c0,2.5,0.3,4.5,0.8,4.5
			C229.1,229.5,229.4,227.5,229.4,225z M233.6,227.9c-1.6-2.2-1.5-4,0.3-5.8c0.8-0.8,1.2-1.5,0.8-1.5c-1.4,0-3.1,2.4-3.1,4.5
			c0,1.2,0.5,2.7,1.2,3.3C234.6,230.1,235,229.8,233.6,227.9z M242.8,228.7c-0.9-0.5-1.3-1.7-1.3-3.7c0-2,0.4-3.2,1.3-3.7
			c0.7-0.4,1-0.8,0.6-0.8c-1.4,0-3.4,2.5-3.4,4.4c0,2,1.9,4.7,3.3,4.6C243.7,229.5,243.5,229.1,242.8,228.7L242.8,228.7z
			 M246.7,228.8c0.6-0.4,0.9-0.9,0.8-1.1c-0.2-0.2-1,0.1-1.8,0.7C244,229.6,244.9,229.9,246.7,228.8L246.7,228.8z M250.8,225
			c0-2.5-0.3-4.5-0.8-4.5c-0.4,0-0.8,2-0.8,4.5s0.3,4.5,0.8,4.5C250.5,229.5,250.8,227.5,250.8,225z M259.6,228.3
			c0.8-0.7,1.4-2.1,1.4-3.1c0-2-1.9-4.7-3.3-4.6c-0.5,0-0.2,0.4,0.5,0.8c0.9,0.5,1.3,1.7,1.3,3.7s-0.4,3.2-1.3,3.7
			c-0.7,0.4-1,0.8-0.6,0.8C257.9,229.5,258.9,229,259.6,228.3z M239.2,228c0-0.4-0.1-0.8-0.3-0.8c-0.2,0-0.5,0.3-0.8,0.8
			c-0.3,0.4-0.1,0.8,0.3,0.8C238.8,228.8,239.2,228.4,239.2,228z M254.6,225.1c0-2.9-0.2-3.5-0.9-2.9c-1.2,1-1.2,4.5,0,5.7
			c0.5,0.5,0.9,0.9,0.9,0.9C254.6,228.8,254.6,227.1,254.6,225.1L254.6,225.1z M205.2,222.2c-0.2-1.1-0.3-0.4-0.3,1.7
			c0,2.1,0.1,3,0.3,2.1C205.4,225,205.4,223.4,205.2,222.2L205.2,222.2z M188.9,222.1c0-0.4-0.6-0.9-1.2-1.1c-1-0.4-1.1-0.3-0.3,0.7
			C188.4,222.9,188.9,223.1,188.9,222.1L188.9,222.1z M207.9,221.6c0.2-0.6,0.1-1.1-0.3-1.1c-0.4,0-0.7,0.5-0.7,1.1
			c0,0.6,0.1,1.1,0.3,1.1S207.7,222.3,207.9,221.6z M247.5,222.1c0-0.4-0.6-0.9-1.2-1.1c-1-0.4-1.1-0.3-0.3,0.7
			C247,222.9,247.5,223.1,247.5,222.1L247.5,222.1z M182.3,210.2c18.9-0.1,49.8-0.1,68.7,0c18.9,0.1,3.4,0.2-34.4,0.2
			S163.4,210.3,182.3,210.2z M272.2,204.4c-4.2-2.3-5.4-9.4-3.2-19.6c0.6-3.1,1-5.8,0.9-6c-0.2-0.2-2.8,2.9-5.8,6.9
			c-8.5,11-12.1,12.4-17.5,7.1l-3-3l0.5-4.7c0.3-2.6,0.7-5.5,1-6.5l0.5-1.9l-2.7,2.2c-1.5,1.2-4.4,4.4-6.6,7.1s-4.8,5.5-5.9,6.2
			c-3.5,2.3-7.6,1.4-7.6-1.6c0-1.2,5-5.7,6.4-5.7c0.4,0,0.7-0.6,0.5-1.3c-0.1-0.7,0.1-1.4,0.5-1.7c1.1-0.6,3.8-7,3.8-8.8
			c0-1.2-0.3-1.4-2.1-1c-2.3,0.6-4.4,2.7-8.3,8.7c-1.5,2.3-2.9,4.3-3.2,4.5c-0.3,0.2-1.1,2-1.9,3.9c-1.7,4.5-2.8,5.5-4.8,4.4
			c-2.3-1.2-3.8-3.9-3.8-6.7v-2.5l-3.3,4.5c-1.8,2.5-4,4.9-4.8,5.3c-5.9,3.1-10.3-3.2-8.4-12c0.5-2.2,0.7-4.1,0.5-4.2
			s-1.3,1.3-2.5,3.3c-3.8,6.2-7.9,10-10.6,10c-2.9,0-4.9-2.7-5-6.8l0-2.8l-3.2,3.3c-1.7,1.8-3.7,3.3-4.4,3.3c-2,0-5.4-2.4-6.3-4.3
			c-1.1-2.3-0.3-8.6,1.5-12.6l1.4-3l-2.3,2.6c-1.3,1.4-3.6,4.7-5.3,7.3c-3.2,5-4.8,5.7-7,3.2c-1.8-2-1.2-6.4,2.3-15.9
			c2.8-7.7,4.1-9,7-7.4c1.8,1,2,3.2,0.4,4.5c-1.6,1.3-3.9,6.7-4.4,10.6c-0.5,3.7-0.8,3.9,4.7-3.6c4.6-6.4,8.3-10,10.2-10
			c4.5,0,4.7,4.7,0.4,10.2c-1.7,2.2-3.2,4.8-3.3,5.7s-0.5,3.2-0.8,5c-0.5,3.1-0.5,3.2,0.9,2.5c3-1.6,10.5-9.7,12.7-13.7
			c2.9-5.4,7.6-8.8,10.6-7.8c1.4,0.5,2.7,1.8,3.8,4c1.3,2.5,1.8,3,2.2,2.1c0.3-0.7,1.5-1.7,2.7-2.2c1.9-0.8,2.4-0.7,3.7,0.4
			c1.9,1.7,1.8,2.9-0.1,7.1c-1.6,3.5-3.9,14.8-3.3,15.8c0.8,1.3,2.5-0.3,6.5-5.9c3.4-4.8,4.3-6.8,5.4-11.8
			c2.3-10.4,8.6-27.1,14.4-37.7c4.1-7.6,9.5-13.6,12.8-14.2c3.1-0.6,5.9,2.2,6.5,6.7c1.6,10.9-6.8,25.7-21.2,37.4
			c-3.1,2.5-3.3,2.9-4.7,10c-2,9.9-1.9,10.5,1,6.1c3.3-4.9,10.3-11.4,12.9-12.1c2.8-0.7,5.3,2.2,6,6.8l0.5,3.4l3.1-2.2
			c2-1.4,3.8-3.6,4.9-6c2.5-5.3,7.5-9.8,10.9-9.8c5.4,0,8,2.7,6.9,7.2c-0.7,2.8-5.5,7.7-9.9,10.2c-3.7,2.1-3.9,2.4-4.7,6.4
			c-1.5,7.5-0.9,9.4,2.3,7.7c3.8-2,6.9-5.2,12.5-12.7c5.4-7.2,6.2-8.8,9.5-18.4c4-11.6,6.2-16.4,11.4-24.6c6.4-10,9.3-12,13.2-8.9
			c1.5,1.2,1.8,2.1,1.8,6.2c0,4-0.5,5.8-2.8,10.7c-2.6,5.5-12.1,20.3-17.3,27c-4.3,5.6-8.1,25.2-5.6,28.6c1,1.4,1.2,1.4,3,0.2
			c3-2,8.5-9.2,14.1-18.6c2.8-4.7,6.1-10.2,7.3-12.3c1.5-2.6,3.3-4.3,5.6-5.6c3.3-1.8,3.4-1.8,5.4-0.5c1.1,0.7,2.4,2.2,2.9,3.3
			c0.5,1.1,0.9,2.1,1,2.3c0.1,0.1,1.2-0.5,2.4-1.4c2.5-1.8,4.9-1.5,6.2,0.8c0.6,1.1,0.3,2.4-1,5.4c-1.9,4.2-4.1,16-3.3,16.9
			c0.9,0.9,4.1-2.8,9.2-10.4c4.5-6.7,6.3-8.6,6.3-6.6c0,1.1-4.4,9.6-7,13.5c-5.1,7.6-8.5,10-12.2,8.5c-3-1.2-4.4-8.6-2.7-14.5
			c1.1-3.8,0.5-3.6-2.2,0.9c-3.8,6.3-8.1,10.4-11,10.4c-2.5,0-3.7-1.2-4.7-5.2c-0.5-1.8-0.6-1.7-2.8,1.8
			c-5.7,9.2-14.1,17.7-17.5,17.6C274.7,205.4,273.2,204.9,272.2,204.4L272.2,204.4z M245,185.1c-0.2-0.6-0.4-0.4-0.5,0.5
			c0,0.8,0.1,1.2,0.4,1C245.2,186.3,245.2,185.6,245,185.1L245,185.1z M308.4,179c4.4-5.9,4.5-6.2,4-9.5c-0.7-4.4-1.5-5.3-3.4-3.3
			c-3.3,3.3-8.9,21.3-6,19.5C303.5,185.3,306,182.3,308.4,179z M188.8,178.7c3.4-4.7,4.5-6.9,4.2-8.1c-0.4-1.7-0.9-4.2-1-5.1
			c-0.1-1-1.5-0.6-3,0.9c-1.6,1.6-5.6,11.7-6.4,16.1C181.7,187,183.7,185.9,188.8,178.7z M245.7,181.3c-0.2-0.5-0.4-0.1-0.4,0.9
			c0,1,0.2,1.5,0.4,0.9C245.9,182.6,245.9,181.8,245.7,181.3L245.7,181.3z M258.4,171.3c2.7-2.7,3.4-3.9,3.4-6
			c0-3.1-1.3-3.4-3.2-0.8c-2,2.7-5.1,10.2-4.3,10.2C254.7,174.7,256.5,173.2,258.4,171.3L258.4,171.3z M285.9,158.3
			c1.4-2.4,2.9-5,3.4-5.8c2.5-4.1,7.7-15.4,8.6-18.6c1.9-7.1-1.1-5.3-5.4,3.3c-2.6,5.3-10.1,25.4-9.4,25.4
			C283.3,162.7,284.5,160.7,285.9,158.3z M229.9,154.3c5.2-5.6,10-12.9,11.2-17c1.3-4.6,1.6-12.7,0.5-13.9c-0.9-0.9-4.8,3.1-6.9,7.1
			c-2.4,4.5-11.3,27.4-11.3,29C223.4,160.1,227.6,156.7,229.9,154.3z M139.3,199.7c-1.8-0.7-3.8-2.7-5.1-5.1
			c-1.4-2.7-1.4-12.3,0.1-20.5c0.5-3,0.9-5.4,0.8-5.3c-0.1,0.1-2.8,4.2-6.1,9.2c-8.5,12.8-10.5,14.5-14.6,12.3
			c-2.8-1.5-5.9-7.4-5.9-11.2c0-11.4,12.1-36.8,21.4-44.9c4.8-4.2,9.2-4.1,15.3,0.5c4.8,3.5,5.2,4.6,2.7,6.8c-2.4,2-3.7,1.4-4.5-2.2
			c-0.6-2.9-1.9-3.3-5-1.7c-3.4,1.7-7.7,6.5-11.2,12.5c-2.9,5-6.9,14.1-7.9,18.2c-0.4,1.6-0.7,1.9-1.2,1.1c-0.5-0.7-0.6-0.5-0.3,0.8
			c0.2,1-0.1,4.3-0.7,7.5c-0.6,3.2-0.8,6-0.4,6.3c1.3,1.3,8.6-7.5,18.3-22c5.4-8.1,10.3-15.1,10.8-15.7c1.3-1.4,4.6-0.5,5.6,1.5
			c0.7,1.3,0.4,2.1-1.4,4.9c-3.1,4.6-6.6,14.8-8.1,23.1c-1.3,7.6-1.8,18-0.8,19c0.3,0.3,2-0.8,3.6-2.6c1.6-1.8,3.3-3.2,3.7-3.2
			c2.1,0-1,8.1-3.9,10C142.7,200.2,141.3,200.4,139.3,199.7z M134.5,184.3c-0.2-0.6-0.4-0.4-0.5,0.5c0,0.8,0.1,1.2,0.4,1
			C134.7,185.5,134.8,184.9,134.5,184.3L134.5,184.3z M118.8,166.3c-0.2-0.6-0.4-0.4-0.5,0.5c0,0.8,0.1,1.2,0.4,1
			C119,167.5,119,166.8,118.8,166.3L118.8,166.3z M341.4,175.4v-21.8l-20.1-0.2l-20.1-0.2l20.5-0.2l20.5-0.2v22.2
			c0,12.2-0.2,22.2-0.4,22.2S341.4,187.4,341.4,175.4L341.4,175.4z M97.4,174.1l-0.2-21.2l6.9,0.2l6.9,0.2l-6.6,0.3l-6.6,0.3
			l-0.2,20.8l-0.2,20.8L97.4,174.1z"/>
		<path id="path869" inkscape:connector-curvature="0" class="st3" d="M318.4,254.3c-2-3.2-4.6-4.7-9.7-5.6l-3-0.6l2.1,2.9l2.1,2.9
			l-3.1-3.2c-1.9-1.9-4.3-3.5-6-4c-3-0.8-10.3-1.2-11-0.6c-0.2,0.2,1,2,2.7,4l3.1,3.7l-3.4-3.6c-3.3-3.4-3.6-3.6-7.8-3.6
			c-2.4,0-5.2-0.4-6.3-0.7c-1.4-0.5-0.8-0.6,2.3-0.4c4,0.3,4.2,0.2,7-2.8c1.6-1.7,2.2-2.1,1.3-1c-2.1,2.9-2,3.2,1.2,2.8
			c1.5-0.2,5.7,0.1,9.4,0.6c6.2,0.8,6.8,0.8,8.4-0.5c1.6-1.4,1.6-1.4,0.3,0.2c-1.8,2.2-1.7,2.6,1,2.6c1.3,0,3.5,0.5,5,1.1
			c2.1,0.9,3.3,1,5.7,0.3c3.6-1,4.6-0.5,1.4,0.7c-1.3,0.4-2.3,0.9-2.3,1.1c0,0.2,2.1,1.1,4.6,2c5.6,2.1,5.6,2.7-0.1,0.8
			c-2.3-0.7-4.2-1.3-4.4-1.1c-0.1,0.1,0.3,1.3,1,2.5C321.7,258.3,320.7,257.9,318.4,254.3L318.4,254.3z M115.2,251.8
			c0.9-1.2,1.5-2.3,1.3-2.5c-0.2-0.2-2.1,0-4.3,0.5c-5.5,1.2-5.4,0.5,0.2-1l4.7-1.3l-2.6-1.4c-3.2-1.7-2.7-1.8,1.5-0.3
			c2.2,0.8,3.7,0.9,5,0.4c1-0.4,3.5-0.7,5.4-0.7h3.5l-1.8-1.9c-1.9-2.1-1.3-2.6,0.8-0.7c1,0.9,3.4,1.2,10.7,1.4l9.4,0.2l-1.3-1.9
			c-0.7-1.1-0.8-1.7-0.3-1.3c0.5,0.3,1.5,1.6,2.1,2.8c1.1,2.1,1.4,2.2,6.2,2.3c4.3,0.1,4.7,0.2,2.8,0.8c-1.2,0.4-4.4,0.5-7,0.2
			c-4.6-0.5-4.9-0.4-7.5,2l-2.7,2.5l2.4-2.7c1.3-1.5,2.4-2.9,2.4-3.2c0-0.3-3-0.5-6.8-0.5c-6.7,0-6.8,0-10,2.8
			c-1.8,1.5-2.4,1.9-1.5,0.9c2.8-3.2,2.5-3.3-6.1-1.7c-1.2,0.2-3.5,1.8-5.2,3.5C114.8,252.6,114.2,253,115.2,251.8L115.2,251.8z
			 M192.8,241c12.3-0.1,32.4-0.1,44.7,0c12.3,0.1,2.2,0.2-22.3,0.2S180.5,241.1,192.8,241z M267.2,240.3c0.3-0.3,3.8-1.6,7.8-2.9
			l7.3-2.4l-64.8-0.1c-35.6,0-64.8,0.1-64.8,0.2s2.3,1.1,5.1,2c5.5,1.8,7.5,3,5,3c-3.2,0-9.9-2.3-14.1-4.8c-6.7-4-12-5.4-9.6-2.5
			c0.7,0.8,0.4,0.9-1.4,0.7c-2-0.3-2.2-0.6-2.2-3.2c0-2.7-0.2-3-3.3-4.4c-1.8-0.8-6.3-2.2-9.8-3.1l-6.5-1.6l-5.5,2.6
			c-3,1.4-6.6,2.8-8,3.1c-1.8,0.3-0.8-0.4,3.3-2.4c3.2-1.5,5.8-3,5.8-3.3c0-0.7-1.9-1.3-7.7-2.6c-8.1-1.7-11-1.4-14.8,1.3
			c-3.3,2.4-8.2,4.7-8.7,4.2c-0.2-0.2,1.8-1.7,4.4-3.4c3-2,4.3-3.2,3.6-3.4c-0.6-0.2-5.7-1.1-11.2-1.9l-10.1-1.5l11.5,0.2l11.5,0.2
			l-2.5-2.7c-2.9-3.1-4.6-5.3-4.2-5.3c0.2,0,2.6,1.8,5.4,4c4.7,3.7,5.5,4.1,10.1,4.5c2.8,0.3,6.9,1.1,9.1,1.9s4.2,1.3,4.4,1.1
			c0.1-0.1-0.5-2.2-1.3-4.6s-1.5-4.4-1.3-4.6c0.1-0.1,1.2,1.8,2.4,4.3c2.1,4.4,2.3,4.6,6.3,5.7c7.2,2,9.3,2.7,13.4,4.5l3.9,1.7v-3.2
			c0-6.2-7.5-5.7,84.3-5.7c78,0,81.6,0.1,82.8,1.4c0.7,0.8,1.2,2.3,1.2,3.4c0,1.1,0.3,2,0.6,2c1.1,0,12.2-2.9,12.9-3.4
			c0.4-0.2,1.6-2.1,2.6-4.2c2.6-5.1,3.1-4.2,0.7,1.2l-1.9,4.3l1.7-0.5c5.2-1.6,10.4-2.6,13.4-2.6c2.7,0,4.1-0.5,6.8-2.5
			c10.3-7.8,10.8-7.8,4.1-0.6l-3,3.3l7.9-0.5c4.3-0.3,9.1-0.2,10.5,0.2l2.6,0.7l-2.9,0.1c-4.6,0.1-17,1.8-17,2.3
			c0,0.2,2,1.8,4.5,3.4c2.4,1.7,4.1,3.1,3.8,3.2c-0.9,0.3-5.1-1.9-8.4-4.5c-3.7-2.9-5.9-3.2-13.7-1.8c-10.8,2-10.8,1.9-3.1,5.9
			c3.7,1.9,6.6,3.5,6.3,3.5c-1,0.1-8.8-2.9-12.8-4.9l-4.2-2.1l-5.7,1.3l-5.7,1.3v3.4c0,3.9-1.3,5.4-4.8,5.5c-1.8,0-2-0.1-1.2-1.1
			c0.5-0.6,0.8-1.3,0.7-1.4c-0.5-0.4-10.4,2.6-15,4.5C276.8,239.6,265.5,242.1,267.2,240.3L267.2,240.3z M184.2,228.7
			c-0.9-0.5-1.3-1.7-1.3-3.7c0-2,0.4-3.2,1.3-3.7c0.7-0.4,1-0.8,0.6-0.8c-1.4,0-3.4,2.5-3.4,4.4c0,2,1.9,4.7,3.3,4.6
			C185.1,229.5,184.9,229.1,184.2,228.7L184.2,228.7z M188.1,228.8c0.6-0.4,0.9-0.9,0.8-1.1c-0.2-0.2-1,0.1-1.8,0.7
			C185.4,229.6,186.3,229.9,188.1,228.8z M191.9,225c0-2.5-0.3-4.5-0.8-4.5c-0.4,0-0.8,2-0.8,4.5c0,2.5,0.3,4.5,0.8,4.5
			C191.5,229.5,191.9,227.5,191.9,225z M195.9,227.6c-0.9-1.4-1-2.1-0.4-2.8c1.2-1.2,1.1-3.3-0.3-3.8c-0.9-0.3-1-0.1-0.5,0.9
			c0.8,1.6,0.3,3.2-1.1,3.2c-0.8,0-0.7,0.6,0.6,2.3C196.3,230,197.7,230.3,195.9,227.6L195.9,227.6z M201.1,229
			c-0.6-0.2-0.9-1.9-0.9-4.4c0-2.2-0.3-4.1-0.8-4.1c-0.4,0-0.8,1.6-0.8,3.6c0,3.5,1,5.5,2.6,5.3C201.7,229.4,201.6,229.2,201.1,229
			L201.1,229z M208.4,228.6c0-0.5,1-2.3,2.3-3.9c2.3-3.1,2.7-4.2,1.5-4.2c-0.4,0-0.8,0.4-0.8,0.8c0,0.5-1.2,2.5-2.7,4.5
			c-2,2.7-2.4,3.7-1.5,3.7C207.9,229.5,208.4,229.1,208.4,228.6L208.4,228.6z M213.7,228.4c0-0.6-0.1-1.1-0.3-1.1s-0.5,0.5-0.7,1.1
			c-0.2,0.6-0.1,1.1,0.3,1.1S213.7,229,213.7,228.4z M221.2,225c0-2.5-0.3-4.5-0.8-4.5c-0.4,0-0.8,2-0.8,4.5s0.3,4.5,0.8,4.5
			C220.8,229.5,221.2,227.5,221.2,225z M225.3,228c-1.2-1.3-1.2-1.8-0.4-3.4c0.8-1.5,0.8-2.1,0-3c-0.5-0.6-1.3-1.1-1.8-1.1
			c-0.5,0-0.5,0.2,0.1,0.4c1.3,0.5,1.2,3.2-0.1,3.7c-0.9,0.3-0.9,0.8,0.2,2.6c0.7,1.2,1.7,2.2,2.3,2.2
			C226.4,229.5,226.3,229.2,225.3,228L225.3,228z M229.4,225c0-2.5-0.3-4.5-0.8-4.5s-0.8,2-0.8,4.5s0.3,4.5,0.8,4.5
			S229.4,227.5,229.4,225z M233.6,227.9c-1.6-2.2-1.5-4,0.3-5.8c0.8-0.8,1.2-1.5,0.8-1.5c-1.4,0-3.1,2.4-3.1,4.5
			c0,1.2,0.5,2.7,1.2,3.3C234.6,230.1,235,229.8,233.6,227.9z M242.8,228.7c-0.9-0.5-1.3-1.7-1.3-3.7c0-2,0.4-3.2,1.3-3.7
			c0.7-0.4,1-0.8,0.6-0.8c-1.4,0-3.4,2.5-3.4,4.4c0,2,1.9,4.7,3.3,4.6C243.7,229.5,243.5,229.1,242.8,228.7L242.8,228.7z
			 M246.7,228.8c0.6-0.4,0.9-0.9,0.8-1.1c-0.2-0.2-1,0.1-1.8,0.7C244,229.6,244.9,229.9,246.7,228.8L246.7,228.8z M250.8,225
			c0-2.5-0.3-4.5-0.8-4.5c-0.4,0-0.8,2-0.8,4.5c0,2.5,0.3,4.5,0.8,4.5C250.5,229.5,250.8,227.5,250.8,225z M259.6,228.3
			c0.8-0.7,1.4-2.1,1.4-3.1c0-2-1.9-4.7-3.3-4.6c-0.5,0-0.2,0.4,0.5,0.8c0.9,0.5,1.3,1.7,1.3,3.7c0,2-0.4,3.2-1.3,3.7
			c-0.7,0.4-1,0.8-0.6,0.8C257.9,229.5,258.9,229,259.6,228.3z M239.2,228c0-0.4-0.1-0.8-0.3-0.8c-0.2,0-0.5,0.3-0.8,0.8
			c-0.3,0.4-0.1,0.8,0.3,0.8C238.8,228.8,239.2,228.4,239.2,228z M254.6,225.1c0-2.9-0.2-3.5-0.9-2.9c-1.2,1-1.2,4.5,0,5.7
			c0.5,0.5,0.9,0.9,0.9,0.9C254.6,228.8,254.6,227.1,254.6,225.1L254.6,225.1z M205.2,222.2c-0.2-1.1-0.3-0.4-0.3,1.7
			c0,2.1,0.1,3,0.3,2.1C205.4,225,205.4,223.4,205.2,222.2L205.2,222.2z M188.9,222.1c0-0.4-0.6-0.9-1.2-1.1c-1-0.4-1.1-0.3-0.3,0.7
			C188.4,222.9,188.9,223.1,188.9,222.1L188.9,222.1z M207.9,221.6c0.2-0.6,0.1-1.1-0.3-1.1c-0.4,0-0.7,0.5-0.7,1.1
			c0,0.6,0.1,1.1,0.3,1.1S207.7,222.3,207.9,221.6z M247.5,222.1c0-0.4-0.6-0.9-1.2-1.1c-1-0.4-1.1-0.3-0.3,0.7
			C247,222.9,247.5,223.1,247.5,222.1L247.5,222.1z M182.3,210.2c18.9-0.1,49.8-0.1,68.7,0c18.9,0.1,3.4,0.2-34.4,0.2
			S163.4,210.3,182.3,210.2z M272.2,204.4c-4.2-2.3-5.4-9.4-3.2-19.6c0.6-3.1,1-5.8,0.9-6c-0.2-0.2-2.8,2.9-5.8,6.9
			c-8.5,11-12.1,12.4-17.5,7.1l-3-3l0.5-4.7c0.3-2.6,0.7-5.5,1-6.5l0.5-1.9l-2.7,2.2c-1.5,1.2-4.4,4.4-6.6,7.1s-4.8,5.5-5.9,6.2
			c-3.5,2.3-7.6,1.4-7.6-1.6c0-1.2,5-5.7,6.4-5.7c0.4,0,0.7-0.6,0.5-1.3c-0.1-0.7,0.1-1.4,0.5-1.7c1.1-0.6,3.8-7,3.8-8.8
			c0-1.2-0.3-1.4-2.1-1c-2.3,0.6-4.4,2.7-8.3,8.7c-1.5,2.3-2.9,4.3-3.2,4.5c-0.3,0.2-1.1,2-1.9,3.9c-1.7,4.5-2.8,5.5-4.8,4.4
			c-2.3-1.2-3.8-3.9-3.8-6.7v-2.5l-3.3,4.5c-1.8,2.5-4,4.9-4.8,5.3c-5.9,3.1-10.3-3.2-8.4-12c0.5-2.2,0.7-4.1,0.5-4.2
			s-1.3,1.3-2.5,3.3c-3.8,6.2-7.9,10-10.6,10c-2.9,0-4.9-2.7-5-6.8l0-2.8l-3.2,3.3c-1.7,1.8-3.7,3.3-4.4,3.3c-2,0-5.4-2.4-6.3-4.3
			c-1.1-2.3-0.3-8.6,1.5-12.6l1.4-3l-2.3,2.6c-1.3,1.4-3.6,4.7-5.3,7.3c-3.2,5-4.8,5.7-7,3.2c-1.8-2-1.2-6.4,2.3-15.9
			c2.8-7.7,4.1-9,7-7.4c1.8,1,2,3.2,0.4,4.5c-1.6,1.3-3.9,6.7-4.4,10.6c-0.5,3.7-0.8,3.9,4.7-3.6c4.6-6.4,8.3-10,10.2-10
			c4.5,0,4.7,4.7,0.4,10.2c-1.7,2.2-3.2,4.8-3.3,5.7s-0.5,3.2-0.8,5c-0.5,3.1-0.5,3.2,0.9,2.5c3-1.6,10.5-9.7,12.7-13.7
			c2.9-5.4,7.6-8.8,10.6-7.8c1.4,0.5,2.7,1.8,3.8,4c1.3,2.5,1.8,3,2.2,2.1c0.3-0.7,1.5-1.7,2.7-2.2c1.9-0.8,2.4-0.7,3.7,0.4
			c1.9,1.7,1.8,2.9-0.1,7.1c-1.6,3.5-3.9,14.8-3.3,15.8c0.8,1.3,2.5-0.3,6.5-5.9c3.4-4.8,4.3-6.8,5.4-11.8
			c2.3-10.4,8.6-27.1,14.4-37.7c4.1-7.6,9.5-13.6,12.8-14.2c3.1-0.6,5.9,2.2,6.5,6.7c1.6,10.9-6.8,25.7-21.2,37.4
			c-3.1,2.5-3.3,2.9-4.7,10c-2,9.9-1.9,10.5,1,6.1c3.3-4.9,10.3-11.4,12.9-12.1c2.8-0.7,5.3,2.2,6,6.8l0.5,3.4l3.1-2.2
			c2-1.4,3.8-3.6,4.9-6c2.5-5.3,7.5-9.8,10.9-9.8c5.4,0,8,2.7,6.9,7.2c-0.7,2.8-5.5,7.7-9.9,10.2c-3.7,2.1-3.9,2.4-4.7,6.4
			c-1.5,7.5-0.9,9.4,2.3,7.7c3.8-2,6.9-5.2,12.5-12.7c5.4-7.2,6.2-8.8,9.5-18.4c4-11.6,6.2-16.4,11.4-24.6c6.4-10,9.3-12,13.2-8.9
			c1.5,1.2,1.8,2.1,1.8,6.2c0,4-0.5,5.8-2.8,10.7c-2.6,5.5-12.1,20.3-17.3,27c-4.3,5.6-8.1,25.2-5.6,28.6c1,1.4,1.2,1.4,3,0.2
			c3-2,8.5-9.2,14.1-18.6c2.8-4.7,6.1-10.2,7.3-12.3c1.5-2.6,3.3-4.3,5.6-5.6c3.3-1.8,3.4-1.8,5.4-0.5c1.1,0.7,2.4,2.2,2.9,3.3
			c0.5,1.1,0.9,2.1,1,2.3c0.1,0.1,1.2-0.5,2.4-1.4c2.5-1.8,4.9-1.5,6.2,0.8c0.6,1.1,0.3,2.4-1,5.4c-1.9,4.2-4.1,16-3.3,16.9
			c0.9,0.9,4.1-2.8,9.2-10.4c4.5-6.7,6.3-8.6,6.3-6.6c0,1.1-4.4,9.6-7,13.5c-5.1,7.6-8.5,10-12.2,8.5c-3-1.2-4.4-8.6-2.7-14.5
			c1.1-3.8,0.5-3.6-2.2,0.9c-3.8,6.3-8.1,10.4-11,10.4c-2.5,0-3.7-1.2-4.7-5.2c-0.5-1.8-0.6-1.7-2.8,1.8
			c-5.7,9.2-14.1,17.7-17.5,17.6C274.7,205.4,273.2,204.9,272.2,204.4L272.2,204.4z M245,185.1c-0.2-0.6-0.4-0.4-0.5,0.5
			c0,0.8,0.1,1.2,0.4,1C245.2,186.3,245.2,185.6,245,185.1L245,185.1z M308.4,179c4.4-5.9,4.5-6.2,4-9.5c-0.7-4.4-1.5-5.3-3.4-3.3
			c-3.3,3.3-8.9,21.3-6,19.5C303.5,185.3,306,182.3,308.4,179z M188.8,178.7c3.4-4.7,4.5-6.9,4.2-8.1c-0.4-1.7-0.9-4.2-1-5.1
			c-0.1-1-1.5-0.6-3,0.9c-1.6,1.6-5.6,11.7-6.4,16.1C181.7,187,183.7,185.9,188.8,178.7z M245.7,181.3c-0.2-0.5-0.4-0.1-0.4,0.9
			c0,1,0.2,1.5,0.4,0.9C245.9,182.6,245.9,181.8,245.7,181.3L245.7,181.3z M258.4,171.3c2.7-2.7,3.4-3.9,3.4-6
			c0-3.1-1.3-3.4-3.2-0.8c-2,2.7-5.1,10.2-4.3,10.2C254.7,174.7,256.5,173.2,258.4,171.3L258.4,171.3z M285.9,158.3
			c1.4-2.4,2.9-5,3.4-5.8c2.5-4.1,7.7-15.4,8.6-18.6c1.9-7.1-1.1-5.3-5.4,3.3c-2.6,5.3-10.1,25.4-9.4,25.4
			C283.3,162.7,284.5,160.7,285.9,158.3z M229.9,154.3c5.2-5.6,10-12.9,11.2-17c1.3-4.6,1.6-12.7,0.5-13.9c-0.9-0.9-4.8,3.1-6.9,7.1
			c-2.4,4.5-11.3,27.4-11.3,29C223.4,160.1,227.6,156.7,229.9,154.3z M139.3,199.7c-1.8-0.7-3.8-2.7-5.1-5.1
			c-1.4-2.7-1.4-12.3,0.1-20.5c0.5-3,0.9-5.4,0.8-5.3c-0.1,0.1-2.8,4.2-6.1,9.2c-8.5,12.8-10.5,14.5-14.6,12.3
			c-2.8-1.5-5.9-7.4-5.9-11.2c0-11.4,12.1-36.8,21.4-44.9c4.8-4.2,9.2-4.1,15.3,0.5c4.8,3.5,5.2,4.6,2.7,6.8c-2.4,2-3.7,1.4-4.5-2.2
			c-0.6-2.9-1.9-3.3-5-1.7c-3.4,1.7-7.7,6.5-11.2,12.5c-2.9,5-6.9,14.1-7.9,18.2c-0.4,1.6-0.7,1.9-1.2,1.1c-0.5-0.7-0.6-0.5-0.3,0.8
			c0.2,1-0.1,4.3-0.7,7.5c-0.6,3.2-0.8,6-0.4,6.3c1.3,1.3,8.6-7.5,18.3-22c5.4-8.1,10.3-15.1,10.8-15.7c1.3-1.4,4.6-0.5,5.6,1.5
			c0.7,1.3,0.4,2.1-1.4,4.9c-3.1,4.6-6.6,14.8-8.1,23.1c-1.3,7.6-1.8,18-0.8,19c0.3,0.3,2-0.8,3.6-2.6c1.6-1.8,3.3-3.2,3.7-3.2
			c2.1,0-1,8.1-3.9,10C142.7,200.2,141.3,200.4,139.3,199.7z M134.5,184.3c-0.2-0.6-0.4-0.4-0.5,0.5c0,0.8,0.1,1.2,0.4,1
			C134.7,185.5,134.8,184.9,134.5,184.3L134.5,184.3z M118.8,166.3c-0.2-0.6-0.4-0.4-0.5,0.5c0,0.8,0.1,1.2,0.4,1
			C119,167.5,119,166.8,118.8,166.3L118.8,166.3z M341.4,175.4v-21.8l-20.1-0.2l-20.1-0.2l20.5-0.2l20.5-0.2v22.2
			c0,12.2-0.2,22.2-0.4,22.2C341.5,197.2,341.4,187.4,341.4,175.4L341.4,175.4z M97.4,174.1l-0.2-21.2l6.9,0.2l6.9,0.2l-6.6,0.3
			l-6.6,0.3l-0.2,20.8l-0.2,20.8L97.4,174.1z"/>
		<path id="path867" inkscape:connector-curvature="0" class="st4" d="M318.4,254.3c-2-3.2-4.6-4.7-9.7-5.6l-3-0.6l2.1,2.9l2.1,2.9
			l-3.1-3.2c-1.9-1.9-4.3-3.5-6-4c-3-0.8-10.3-1.2-11-0.6c-0.2,0.2,1,2,2.7,4l3.1,3.7l-3.4-3.6c-3.3-3.4-3.6-3.6-7.8-3.6
			c-2.4,0-5.2-0.4-6.3-0.7c-1.4-0.5-0.8-0.6,2.3-0.4c4,0.3,4.2,0.2,7-2.8c1.6-1.7,2.2-2.1,1.3-1c-2.1,2.9-2,3.2,1.2,2.8
			c1.5-0.2,5.7,0.1,9.4,0.6c6.2,0.8,6.8,0.8,8.4-0.5c1.6-1.4,1.6-1.4,0.3,0.2c-1.8,2.2-1.7,2.6,1,2.6c1.3,0,3.5,0.5,5,1.1
			c2.1,0.9,3.3,1,5.7,0.3c3.6-1,4.6-0.5,1.4,0.7c-1.3,0.4-2.3,0.9-2.3,1.1c0,0.2,2.1,1.1,4.6,2c5.6,2.1,5.6,2.7-0.1,0.8
			c-2.3-0.7-4.2-1.3-4.4-1.1c-0.1,0.1,0.3,1.3,1,2.5C321.7,258.3,320.7,257.9,318.4,254.3L318.4,254.3z M115.2,251.8
			c0.9-1.2,1.5-2.3,1.3-2.5c-0.2-0.2-2.1,0-4.3,0.5c-5.5,1.2-5.4,0.5,0.2-1l4.7-1.3l-2.6-1.4c-3.2-1.7-2.7-1.8,1.5-0.3
			c2.2,0.8,3.7,0.9,5,0.4c1-0.4,3.5-0.7,5.4-0.7h3.5l-1.8-1.9c-1.9-2.1-1.3-2.6,0.8-0.7c1,0.9,3.4,1.2,10.7,1.4l9.4,0.2l-1.3-1.9
			c-0.7-1.1-0.8-1.7-0.3-1.3c0.5,0.3,1.5,1.6,2.1,2.8c1.1,2.1,1.4,2.2,6.2,2.3c4.3,0.1,4.7,0.2,2.8,0.8c-1.2,0.4-4.4,0.5-7,0.2
			c-4.6-0.5-4.9-0.4-7.5,2l-2.7,2.5l2.4-2.7c1.3-1.5,2.4-2.9,2.4-3.2c0-0.3-3-0.5-6.8-0.5c-6.7,0-6.8,0-10,2.8
			c-1.8,1.5-2.4,1.9-1.5,0.9c2.8-3.2,2.5-3.3-6.1-1.7c-1.2,0.2-3.5,1.8-5.2,3.5C114.8,252.6,114.2,253,115.2,251.8L115.2,251.8z
			 M192.8,241c12.3-0.1,32.4-0.1,44.7,0c12.3,0.1,2.2,0.2-22.3,0.2S180.5,241.1,192.8,241z M267.2,240.3c0.3-0.3,3.8-1.6,7.8-2.9
			l7.3-2.4l-64.8-0.1c-35.6,0-64.8,0.1-64.8,0.2s2.3,1.1,5.1,2c5.5,1.8,7.5,3,5,3c-3.3,0-10.2-2.3-14-4.7c-6-3.8-10.9-5.3-10.1-3.1
			c0.3,0.9,0,1.1-1.2,0.9c-1.4-0.2-1.7-0.8-1.9-3c-0.2-2.5-0.6-3-3.5-4.3c-1.8-0.8-6.2-2.2-9.8-3.1l-6.5-1.6l-5.5,2.6
			c-3,1.4-6.6,2.8-8,3.1c-1.8,0.3-0.8-0.4,3.3-2.4c3.2-1.5,5.8-3,5.8-3.3c0-0.7-1.9-1.3-7.7-2.6c-8.1-1.7-11-1.4-14.8,1.3
			c-3.3,2.4-8.2,4.7-8.7,4.2c-0.2-0.2,1.8-1.7,4.4-3.4c3-2,4.3-3.2,3.6-3.4c-0.6-0.2-5.7-1.1-11.2-1.9l-10.1-1.5l11.5,0.2l11.5,0.2
			l-2.5-2.7c-2.9-3.1-4.6-5.3-4.2-5.3c0.2,0,2.6,1.8,5.4,4c4.7,3.7,5.5,4.1,10.1,4.5c2.8,0.3,6.9,1.1,9.1,1.9s4.2,1.3,4.4,1.1
			c0.1-0.1-0.5-2.2-1.3-4.6s-1.5-4.4-1.3-4.6c0.1-0.1,1.2,1.8,2.4,4.3c2.1,4.4,2.3,4.6,6.3,5.7c7.2,2,9.3,2.7,13.4,4.5l3.9,1.7v-3.2
			c0-1.8,0.4-3.6,0.9-4.1c0.7-0.7,20.2-0.9,83.1-0.9c89.3,0,84.3-0.2,84.3,4.1c0,1.1,0.3,1.9,0.6,1.9c1.1,0,12.2-2.9,12.9-3.4
			c0.4-0.2,1.6-2.1,2.6-4.2c2.6-5.1,3.1-4.2,0.7,1.2l-1.9,4.3l1.7-0.5c5.2-1.6,10.4-2.6,13.4-2.6c2.7,0,4.1-0.5,6.8-2.5
			c10.3-7.8,10.8-7.8,4.1-0.6l-3,3.3l7.9-0.5c4.3-0.3,9.1-0.2,10.5,0.2l2.6,0.7l-2.9,0.1c-4.6,0.1-17,1.8-17,2.3
			c0,0.2,2,1.8,4.5,3.4c2.4,1.7,4.1,3.1,3.8,3.2c-0.9,0.3-5.1-1.9-8.4-4.5c-3.7-2.9-5.9-3.2-13.7-1.8c-10.8,2-10.8,1.9-3.1,5.9
			c3.7,1.9,6.6,3.5,6.3,3.5c-1,0.1-8.8-2.9-12.8-4.9l-4.2-2.1l-5.7,1.3l-5.7,1.3v3.4c0,4-1.4,5.5-4.9,5.4c-1.2,0-1.8-0.2-1.3-0.4
			c0.5-0.2,0.9-0.9,0.9-1.5c0-0.6-0.4-1-0.9-0.8c-0.5,0.2-3,0.9-5.4,1.7c-2.5,0.7-6.4,2.1-8.7,3.1
			C276.8,239.6,265.5,242.1,267.2,240.3L267.2,240.3z M188.9,227.9c0-1.6,0-1.6-1.5-0.2c-2.1,1.9-4.1,0.6-4.1-2.7
			c0-3.3,2-4.6,4.1-2.7c1.4,1.2,1.5,1.3,1.5,0.2c0-0.7,0.4-1.2,0.8-1.2c0.5,0,0.7,1.5,0.6,4.1c-0.2,4-0.2,4.1,1.6,4.1
			c1,0,1.5-0.2,0.9-0.4c-1-0.4-1.3-3.3-0.3-3.3c0.3,0,1.1,0.8,1.6,1.9c0.6,1,1.6,1.9,2.4,1.9c1.3,0,1.3-0.1-0.1-1.6
			c-1.4-1.5-1.4-1.7-0.3-3.4c2-3.1,0.3-4-6.9-4c-6.9,0-8.1,0.7-8.1,4.5c0,3.1,1.5,4.5,4.8,4.5C188.4,229.5,188.9,229.3,188.9,227.9
			L188.9,227.9z M191.9,223.1c0-1.5,0.3-1.9,1.3-1.7c0.7,0.1,1.3,0.9,1.3,1.7c0,0.8-0.6,1.6-1.3,1.7
			C192.2,225.1,191.9,224.6,191.9,223.1z M204.5,228.6c0.5-0.5,0.9-2.4,0.9-4.1c0-1.8,0.3-3.2,0.8-3.2c0.4,0,0.8,0.6,0.8,1.3
			c0,1.3,0.1,1.3,0.8,0c0.4-0.7,1.4-1.3,2.3-1.3c1.4,0,1.4,0.2-0.7,3.2c-3.6,5.3-3.6,5.1,0.5,5.1c3.4,0,3.8-0.2,3.8-1.7
			c0-1.5-0.1-1.5-0.8-0.4c-0.4,0.7-1.6,1.3-2.6,1.3h-1.9l2.2-3.2c1.2-1.8,2.4-3.6,2.7-4.1c0.4-0.7-0.7-0.9-4.9-0.9
			c-3,0-5.1,0.2-4.6,0.4c1.1,0.4,1.3,5.4,0.3,6.9c-0.4,0.6-1.3,0.9-2.1,0.7c-1.2-0.2-1.4-1-1.4-4.2c0-3.7-0.1-3.9-1.9-3.9
			c-1,0-1.5,0.2-0.9,0.4c0.6,0.2,0.9,1.8,0.9,3.9c0,2,0.2,3.8,0.5,4.1C200,229.9,203.5,229.6,204.5,228.6z M222.1,229
			c-1-0.4-1.3-3.3-0.3-3.3c0.3,0,1,0.8,1.5,1.9c0.7,1.6,1.3,1.9,4.4,1.8c2,0,3.2-0.2,2.6-0.4c-0.6-0.2-0.9-1.8-0.9-4s0.4-3.8,0.9-4
			c0.5-0.2-0.2-0.4-1.7-0.4c-1.4,0-2.2,0.2-1.7,0.4c1.3,0.5,1.3,7.8,0,7.8c-1.5,0-3.2-3.1-2.1-3.8c0.5-0.3,0.8-1.4,0.6-2.3
			c-0.2-1.6-0.7-1.8-4-1.9c-2.1-0.1-3.3,0-2.8,0.3c0.6,0.2,0.9,1.8,0.9,4c0,2.2-0.4,3.8-0.9,4c-0.5,0.2,0.2,0.4,1.7,0.4
			C221.9,229.4,222.6,229.2,222.1,229L222.1,229z M221.2,223.1c0-1.5,0.3-1.9,1.3-1.7c0.7,0.1,1.3,0.9,1.3,1.7
			c0,0.8-0.6,1.6-1.3,1.7C221.5,225.1,221.2,224.6,221.2,223.1z M239.2,227.9c0-1.5-0.1-1.5-1.4-0.4c-2,1.8-3.8,1.5-4.3-0.6
			c-1.1-4.2,1.5-7,4.1-4.6c1.5,1.4,1.5,1.4,1.5-0.2c0-1.4-0.4-1.6-3-1.6c-2.2,0-3.3,0.4-4.1,1.7c-2.5,3.6-0.4,7.3,4.1,7.3
			C238.8,229.5,239.2,229.3,239.2,227.9L239.2,227.9z M247.5,227.9c0-1.6,0-1.6-1.5-0.2c-2.1,1.9-4.1,0.6-4.1-2.7
			c0-3.3,2-4.6,4.1-2.7c1.5,1.4,1.5,1.4,1.5-0.2c0-1.4-0.4-1.6-2.9-1.6c-3.4,0-4.8,1.4-4.8,4.5c0,3.1,1.5,4.5,4.8,4.5
			C247,229.5,247.5,229.3,247.5,227.9L247.5,227.9z M251.6,225c0-4-0.2-4.5-1.5-4.5c-1.3,0-1.5,0.5-1.5,4.5c0,4,0.2,4.5,1.5,4.5
			S251.6,229,251.6,225z M260.8,227.1c1.5-3.2-0.1-6.1-3.7-6.4c-3.2-0.3-4.7,1.1-4.7,4.4s1.5,4.6,4.7,4.4
			C259.2,229.2,260.1,228.7,260.8,227.1z M255.1,227.9c-1.3-1.3-1.1-4.7,0.3-5.9c1.6-1.4,3.6,0,3.9,2.6
			C259.8,227.9,257.2,229.9,255.1,227.9L255.1,227.9z M270.9,203c-3.1-3.3-3.5-12.9-0.9-22.3c0.4-1.4,0.7-2.9,0.7-3.3
			c0-0.3-2.7,2.7-6,6.9c-8.7,10.9-11.3,12.6-15.8,10.3c-2.9-1.5-5.3-5.3-5.2-8.3c0.1-2.2,0.1-2.2,0.6-0.4c0.4,1.6,0.7,1.2,1.5-2.5
			c0.5-2.4,0.8-4.6,0.5-4.8c-0.2-0.2-0.5,0-0.5,0.6c0,0.6-0.3,0.2-0.6-0.8c-0.5-1.8-0.6-1.8-4.2,1.9c-2.1,2.1-5.6,5.9-8,8.4
			c-4.5,4.9-6.9,5.8-9.2,3.4c-1.7-1.7-1.4-2.7,2.1-5.6c2.3-1.9,2.7-2.1,1.7-0.8c-1,1.3-0.8,1.2,0.8-0.4c2.5-2.5,6.4-8.5,4.8-7.6
			c-0.8,0.5-0.8,0.3-0.1-0.9c0.5-0.8,0.8-2.4,0.8-3.5c0-2.7-2.9-2.6-5.4,0.1c-3.2,3.4-9,12.3-10.4,16c-1,2.7-1.7,3.4-3.2,3.6
			c-1.5,0.2-2.3-0.3-3.5-2.3c-0.8-1.4-1.5-3.5-1.6-4.7l0-2.3l-1.3,1.9c-2.3,3.4-7,8.2-8.5,8.7c-2.2,0.7-4.4-0.3-5.6-2.7
			c-1.3-2.6-1.5-9.3-0.3-12.7c1.3-3.8,0.3-3.5-2.4,0.8c-3.8,6.1-8.9,11.1-11.4,11.1c-2.8,0-4.4-2.5-4.4-6.8v-3.5l-3.6,3.6
			c-2,2-4,3.6-4.4,3.6s-1.9-0.8-3.3-1.7c-2.5-1.7-2.6-1.8-2.5-7.4c0-4.5,0.4-6.2,1.7-8.5c0.9-1.6,1.6-3,1.4-3.1
			c-0.4-0.4-7,8.1-8.9,11.5c-1,1.7-2.2,3.4-2.8,3.6c-1.4,0.6-3.9-0.9-4-2.5c-0.2-4.2,0.5-7.7,2.9-14.2c2.4-6.4,3-7.4,4.6-7.6
			c2.8-0.3,4.4,0.9,3.2,2.6c-2.5,3.6-4.9,9-5.4,12.3c-0.3,2-0.4,3.7-0.1,3.7c0.2,0,1.9-2.1,3.6-4.7c7.5-11.1,12.4-14.9,14.5-11.1
			c1.3,2.4,0.9,4.2-1.7,7.6c-3.2,4.3-4.9,7.5-4.4,8.9c0.2,0.6,0.1,0.9-0.3,0.6c-0.4-0.2-0.7,0.9-0.8,2.5c-0.1,1.8,0.2,2.9,0.8,2.9
			c0.5,0,3-1.9,5.7-4.1c3.4-2.9,5.6-5.6,7.5-9.1c5.1-9.6,12.2-11.4,15.1-3.8l0.8,2.2l1.7-1.6c2.3-2.2,5.6-2.1,6.6,0.2
			c0.6,1.4,0.5,2.4-0.8,4.9c-1.5,2.9-3.8,12.5-3.8,15.9c0,2.4,2,1.6,4.7-1.8c5-6.2,6.6-9.4,8.4-16.8c2.6-10.6,11.1-33,12.3-32.3
			c0.3,0.2,2.1-2.2,4-5.3c2-3.1,3.2-5.4,2.8-5.2c-0.4,0.2-2,2.5-3.5,4.9c-3,4.9-4.1,5.9-2.1,2c2.2-4.3,7-10.9,9-12.5
			c2.9-2.3,6.6-2.1,8.6,0.5c1.5,1.9,1.6,2.7,1.3,8.6c-0.3,6.2-0.6,6.9-4.3,13.6c-4.7,8.4-9.1,13.7-15.1,17.9
			c-2.4,1.7-4.6,3.7-4.8,4.3c-0.7,2.5-3.5,17.6-3.2,17.8c0.1,0.1,1.7-1.9,3.4-4.5c3.3-5,9.6-11.2,12-11.9c3.6-0.9,6.2,2.1,6.2,7.4
			c0,1.4,0.3,2.6,0.6,2.6c1.7,0,6.4-4.2,7.8-7c2.3-4.6,6.3-9.2,8.9-10.3c5.3-2.2,10.5,1.2,9.4,6.1c-0.7,3.1-7.6,9.9-11.2,11.1
			c-3.1,1-3.6,2.4-3.7,9.4c0,3.6,0.2,4.5,1.1,4.7c2.7,0.5,10.9-7.8,18.3-18.6c1-1.4,3.4-7.2,5.3-12.8c4-11.6,7.5-19,13-27.2
			c5.6-8.4,8.1-9.8,11.4-6.2c1.4,1.5,1.8,2.7,1.8,5.8c0,6.3-6.7,18.8-19.2,35.9c-4.4,6-7.4,15.9-7.4,24.3c0,6.2,0.6,7.5,3.2,6.9
			c3.2-0.8,14.5-16.5,20.7-28.7c2.6-5.1,7.2-9.3,10.2-9.3c2.3,0,4.7,2.2,5.4,4.9c0.6,2.3,0.7,2.3,2.6,0.4c2.6-2.6,6.8-1.6,6.8,1.6
			c0,0.7-0.8,3.1-1.8,5.3c-2,4.5-3.5,15.7-2.1,15.7c1.3,0,4.5-3.7,9.3-11.1c2.5-3.8,4.8-6.8,5.2-6.5c1.2,0.7-4.7,11.7-9.5,17.8
			c-5,6.3-8.3,6.7-11.1,1.3c-1.4-2.6-1.4-6-0.1-12.7c0.4-2.3,0.1-2-3.3,3.1c-4.3,6.5-7.7,9.6-10.2,9.6c-2.2,0-4-2.1-4.7-5.1
			c-0.5-2.4-0.5-2.4-5.3,4.7c-6.3,9.3-11.4,13.9-15.2,13.9C273.4,204.7,272,204.2,270.9,203L270.9,203z M188.5,179.4
			c4.7-6.4,4.9-6.7,4.4-10c-0.3-1.9-0.6-3.6-0.8-3.9c-0.8-1.3-2.6-0.4-4.4,2.4c-3.8,5.7-7.1,18.1-4.8,18.1
			C183.3,186,185.8,183,188.5,179.4L188.5,179.4z M308.6,179.1c4.9-6.6,4.8-6.5,4-11c-0.8-4.2-2.5-4.2-5.2,0
			c-1.9,2.9-4.3,9.4-5,13.3C301.1,187.8,302.6,187.2,308.6,179.1L308.6,179.1z M259.6,170.4c2.2-2.4,3.3-6.1,2.2-7.7
			c-0.6-0.9-0.9-0.9-2.2,0.2c-1.5,1.3-6.1,10.3-6.1,11.8C253.5,175.7,257,173.3,259.6,170.4z M287.6,155.9c2.7-4.5,6.1-10.8,7.6-14
			c2.7-5.9,4.1-12.3,2.8-12.3c-1.1,0-3.7,3.1-5.5,6.7c-3.1,6.2-11,27.9-10.1,27.9C282.6,164.2,284.9,160.5,287.6,155.9L287.6,155.9z
			 M229.5,154.7c7.2-7.6,10.6-12.7,12.1-18.1c1.7-6,1.8-10.6,0.3-12.6c-1-1.4-1.2-1.4-3.7,1.1c-2.7,2.6-7.1,11.9-12.1,26
			c-1.3,3.7-2.7,7.4-3,8.2C222.1,161.5,224.8,159.6,229.5,154.7L229.5,154.7z M287.2,138.9c0.9-1.5,1.5-2.8,1.3-3
			c-0.1-0.1-1,1.1-2,2.7C284.5,142.4,285.1,142.6,287.2,138.9L287.2,138.9z M139.4,199.2c-4.2-1.4-5.7-4.1-5.8-10.8
			c-0.1-4.6,0-5.1,0.4-2.8c0.3,1.7,0.6,2.3,0.7,1.4s0.3-2.7,0.5-4.1c0.3-1.9,0.2-2.2-0.3-1.4c-0.4,0.6-1,0.9-1.2,0.7
			c-0.5-0.5,1.6-13.1,2.3-14.5c1.6-2.9-1.8,1.9-6.6,9.3c-9.2,14.1-11.5,16.1-15.4,12.9c-5.3-4.4-6.3-9.2-4.1-18.7
			c2.8-11.9,14.2-32.6,20.8-37.6c4.5-3.4,9.9-2.6,15.9,2.5c2.5,2.1,3,3.9,1.4,5.4c-1.7,1.7-3.4,1-4.6-2.1c-0.7-1.8-1.7-3-2.4-3
			c-4.2,0-10.4,6.4-15.4,15.8c-4,7.5-4.8,8.5-2.3,2.6c0.8-2,1.4-3.7,1.2-3.8c-0.6-0.6-5,10.4-6.5,15.7c-0.8,3-1.7,8.2-1.9,11.6
			c-0.4,5.2-0.3,6.2,0.6,6.2c2,0,8.7-8.3,18.6-23.2c5.4-8.1,10.3-15.1,10.9-15.4c1.1-0.6,3.3,0.3,4.7,1.9c0.7,0.8,0.4,1.8-1.4,4.5
			c-3.6,5.4-7.2,16.5-8.6,26.2c-0.6,4.7-1.3,9.3-1.5,10.3c-0.4,2.3,0.9,6.1,2.1,6.1c0.5,0,2.1-1.4,3.7-3.2l2.8-3.2l0,2.3
			c0,2.8-2.9,7.9-4.9,8.7C142.6,199.8,140.8,199.7,139.4,199.2L139.4,199.2z M341.4,175.4v-21.8l-19.7-0.2l-19.7-0.2l20.1-0.2
			l20.1-0.2v22.2c0,12.2-0.2,22.2-0.4,22.2S341.4,187.4,341.4,175.4L341.4,175.4z M97.4,173.7l-0.2-20.8l6.6,0.2l6.6,0.2l-6.2,0.3
			l-6.2,0.3l-0.2,20.4l-0.2,20.4L97.4,173.7z"/>
		<path id="path865" inkscape:connector-curvature="0" class="st5" d="M192.8,241c12.3-0.1,32.4-0.1,44.7,0
			c12.3,0.1,2.2,0.2-22.3,0.2S180.5,241.1,192.8,241z M145.3,233.3c-1.4-0.8-3.6-1.6-4.8-1.9c-1.9-0.5-2.1-0.3-1.7,0.8
			c0.4,1,0.1,1.2-1.2,1.1c-1.6-0.2-1.7-0.6-1.9-7.3c-0.1-4.5,0.1-7.4,0.7-8.1c1.3-1.6,164.8-1.6,166.4,0c0.8,0.8,1.1,3,1.1,8
			c0,7.5-0.7,8.9-4.3,8.9c-1.5,0-1.6-0.2-0.9-1.6c0.8-1.5,0.7-1.5-1.7-1c-1.4,0.3-3.6,1-5,1.6c-2.1,0.9-14.6,1-73.2,1
			C151,234.7,147.8,234.6,145.3,233.3L145.3,233.3z M188.9,227.9c0-1.6,0-1.6-1.5-0.2c-2.1,1.9-4.1,0.6-4.1-2.7c0-3.3,2-4.6,4.1-2.7
			c1.4,1.2,1.5,1.3,1.5,0.2c0-0.7,0.4-1.2,0.8-1.2c0.5,0,0.7,1.5,0.6,4.1c-0.2,4-0.2,4.1,1.6,4.1c1,0,1.5-0.2,0.9-0.4
			c-1-0.4-1.3-3.3-0.3-3.3c0.3,0,1.1,0.8,1.6,1.9c0.6,1,1.6,1.9,2.4,1.9c1.3,0,1.3-0.1-0.1-1.6c-1.4-1.5-1.4-1.7-0.3-3.4
			c2-3.1,0.3-4-6.9-4c-6.9,0-8.1,0.7-8.1,4.5c0,3.1,1.5,4.5,4.8,4.5C188.4,229.5,188.9,229.3,188.9,227.9L188.9,227.9z M191.9,223.1
			c0-1.5,0.3-1.9,1.3-1.7c0.7,0.1,1.3,0.9,1.3,1.7c0,0.8-0.6,1.6-1.3,1.7C192.2,225.1,191.9,224.6,191.9,223.1z M204.5,228.6
			c0.5-0.5,0.9-2.4,0.9-4.1c0-1.8,0.3-3.2,0.8-3.2c0.4,0,0.8,0.6,0.8,1.3c0,1.3,0.1,1.3,0.8,0c0.4-0.7,1.4-1.3,2.3-1.3
			c1.4,0,1.4,0.2-0.7,3.2c-3.6,5.3-3.6,5.1,0.5,5.1c3.4,0,3.8-0.2,3.8-1.7c0-1.5-0.1-1.5-0.8-0.4c-0.4,0.7-1.6,1.3-2.6,1.3h-1.9
			l2.2-3.2c1.2-1.8,2.4-3.6,2.7-4.1c0.4-0.7-0.7-0.9-4.9-0.9c-3,0-5.1,0.2-4.6,0.4c1.1,0.4,1.3,5.4,0.3,6.9
			c-0.4,0.6-1.3,0.9-2.1,0.7c-1.2-0.2-1.4-1-1.4-4.2c0-3.7-0.1-3.9-1.9-3.9c-1,0-1.5,0.2-0.9,0.4c0.6,0.2,0.9,1.8,0.9,3.9
			c0,2,0.2,3.8,0.5,4.1C200,229.9,203.5,229.6,204.5,228.6z M222.1,229c-1-0.4-1.3-3.3-0.3-3.3c0.3,0,1,0.8,1.5,1.9
			c0.7,1.6,1.3,1.9,4.4,1.8c2,0,3.2-0.2,2.6-0.4c-0.6-0.2-0.9-1.8-0.9-4c0-2.2,0.4-3.8,0.9-4c0.5-0.2-0.2-0.4-1.7-0.4
			c-1.4,0-2.2,0.2-1.7,0.4c1.3,0.5,1.3,7.8,0,7.8c-1.5,0-3.2-3.1-2.1-3.8c0.5-0.3,0.8-1.4,0.6-2.3c-0.2-1.6-0.7-1.8-4-1.9
			c-2.1-0.1-3.3,0-2.8,0.3c0.6,0.2,0.9,1.8,0.9,4c0,2.2-0.4,3.8-0.9,4c-0.5,0.2,0.2,0.4,1.7,0.4C221.9,229.4,222.6,229.2,222.1,229
			L222.1,229z M221.2,223.1c0-1.5,0.3-1.9,1.3-1.7c0.7,0.1,1.3,0.9,1.3,1.7c0,0.8-0.6,1.6-1.3,1.7
			C221.5,225.1,221.2,224.6,221.2,223.1z M239.2,227.9c0-1.5-0.1-1.5-1.4-0.4c-2,1.8-3.8,1.5-4.3-0.6c-1.1-4.2,1.5-7,4.1-4.6
			c1.5,1.4,1.5,1.4,1.5-0.2c0-1.4-0.4-1.6-3-1.6c-2.2,0-3.3,0.4-4.1,1.7c-2.5,3.6-0.4,7.3,4.1,7.3
			C238.8,229.5,239.2,229.3,239.2,227.9L239.2,227.9z M247.5,227.9c0-1.6,0-1.6-1.5-0.2c-2.1,1.9-4.1,0.6-4.1-2.7
			c0-3.3,2-4.6,4.1-2.7c1.5,1.4,1.5,1.4,1.5-0.2c0-1.4-0.4-1.6-2.9-1.6c-3.4,0-4.8,1.4-4.8,4.5s1.5,4.5,4.8,4.5
			C247,229.5,247.5,229.3,247.5,227.9L247.5,227.9z M251.6,225c0-4-0.2-4.5-1.5-4.5c-1.3,0-1.5,0.5-1.5,4.5c0,4,0.2,4.5,1.5,4.5
			S251.6,229,251.6,225z M260.8,227.1c1.5-3.2-0.1-6.1-3.7-6.4c-3.2-0.3-4.7,1.1-4.7,4.4s1.5,4.6,4.7,4.4
			C259.2,229.2,260.1,228.7,260.8,227.1z M255.1,227.9c-1.3-1.3-1.1-4.7,0.3-5.9c1.6-1.4,3.6,0,3.9,2.6
			C259.8,227.9,257.2,229.9,255.1,227.9L255.1,227.9z M270.9,203c-3.1-3.3-3.5-12.9-0.9-22.3c0.4-1.4,0.7-2.9,0.7-3.3
			c0-0.3-2.7,2.7-6,6.9c-8.7,10.9-11.3,12.6-15.8,10.3c-2.9-1.5-5.3-5.3-5.2-8.3c0.1-2.2,0.1-2.2,0.6-0.4c0.4,1.6,0.7,1.2,1.5-2.5
			c0.5-2.4,0.8-4.6,0.5-4.8c-0.2-0.2-0.5,0-0.5,0.6c0,0.6-0.3,0.2-0.6-0.8c-0.5-1.8-0.6-1.8-4.2,1.9c-2.1,2.1-5.6,5.9-8,8.4
			c-4.5,4.9-6.9,5.8-9.2,3.4c-1.7-1.7-1.4-2.7,2.1-5.6c2.3-1.9,2.7-2.1,1.7-0.8c-1,1.3-0.8,1.2,0.8-0.4c2.5-2.5,6.4-8.5,4.8-7.6
			c-0.8,0.5-0.8,0.3-0.1-0.9c0.5-0.8,0.8-2.4,0.8-3.5c0-2.7-2.9-2.6-5.4,0.1c-3.2,3.4-9,12.3-10.4,16c-1,2.7-1.7,3.4-3.2,3.6
			c-1.5,0.2-2.3-0.3-3.5-2.3c-0.8-1.4-1.5-3.5-1.6-4.7l0-2.3l-1.3,1.9c-2.3,3.4-7,8.2-8.5,8.7c-2.2,0.7-4.4-0.3-5.6-2.7
			c-1.3-2.6-1.5-9.3-0.3-12.7c1.3-3.8,0.3-3.5-2.4,0.8c-3.8,6.1-8.9,11.1-11.4,11.1c-2.8,0-4.4-2.5-4.4-6.8v-3.5l-3.6,3.6
			c-2,2-4,3.6-4.4,3.6s-1.9-0.8-3.3-1.7c-2.5-1.7-2.6-1.8-2.5-7.4c0-4.5,0.4-6.2,1.7-8.5c0.9-1.6,1.6-3,1.4-3.1
			c-0.4-0.4-7,8.1-8.9,11.5c-1,1.7-2.2,3.4-2.8,3.6c-1.4,0.6-3.9-0.9-4-2.5c-0.2-4.2,0.5-7.7,2.9-14.2c2.4-6.4,3-7.4,4.6-7.6
			c2.8-0.3,4.4,0.9,3.2,2.6c-2.5,3.6-4.9,9-5.4,12.3c-0.3,2-0.4,3.7-0.1,3.7c0.2,0,1.9-2.1,3.6-4.7c7.5-11.1,12.4-14.9,14.5-11.1
			c1.3,2.4,0.9,4.2-1.7,7.6c-3.2,4.3-4.9,7.5-4.4,8.9c0.2,0.6,0.1,0.9-0.3,0.6c-0.4-0.2-0.7,0.9-0.8,2.5c-0.1,1.8,0.2,2.9,0.8,2.9
			c0.5,0,3-1.9,5.7-4.1c3.4-2.9,5.6-5.6,7.5-9.1c5.1-9.6,12.2-11.4,15.1-3.8l0.8,2.2l1.7-1.6c2.3-2.2,5.6-2.1,6.6,0.2
			c0.6,1.4,0.5,2.4-0.8,4.9c-1.5,2.9-3.8,12.5-3.8,15.9c0,2.4,2,1.6,4.7-1.8c5-6.2,6.6-9.4,8.4-16.8c2.6-10.6,11.1-33,12.3-32.3
			c0.3,0.2,2.1-2.2,4-5.3c2-3.1,3.2-5.4,2.8-5.2c-0.4,0.2-2,2.5-3.5,4.9c-3,4.9-4.1,5.9-2.1,2c2.2-4.3,7-10.9,9-12.5
			c2.9-2.3,6.6-2.1,8.6,0.5c1.5,1.9,1.6,2.7,1.3,8.6c-0.3,6.2-0.6,6.9-4.3,13.6c-4.7,8.4-9.1,13.7-15.1,17.9
			c-2.4,1.7-4.6,3.7-4.8,4.3c-0.7,2.5-3.5,17.6-3.2,17.8c0.1,0.1,1.7-1.9,3.4-4.5c3.3-5,9.6-11.2,12-11.9c3.6-0.9,6.2,2.1,6.2,7.4
			c0,1.4,0.3,2.6,0.6,2.6c1.7,0,6.4-4.2,7.8-7c2.3-4.6,6.3-9.2,8.9-10.3c5.3-2.2,10.5,1.2,9.4,6.1c-0.7,3.1-7.6,9.9-11.2,11.1
			c-3.1,1-3.6,2.4-3.7,9.4c0,3.6,0.2,4.5,1.1,4.7c2.7,0.5,10.9-7.8,18.3-18.6c1-1.4,3.4-7.2,5.3-12.8c4-11.6,7.5-19,13-27.2
			c5.6-8.4,8.1-9.8,11.4-6.2c1.4,1.5,1.8,2.7,1.8,5.8c0,6.3-6.7,18.8-19.2,35.9c-4.4,6-7.4,15.9-7.4,24.3c0,6.2,0.6,7.5,3.2,6.9
			c3.2-0.8,14.5-16.5,20.7-28.7c2.6-5.1,7.2-9.3,10.2-9.3c2.3,0,4.7,2.2,5.4,4.9c0.6,2.3,0.7,2.3,2.6,0.4c2.6-2.6,6.8-1.6,6.8,1.6
			c0,0.7-0.8,3.1-1.8,5.3c-2,4.5-3.5,15.7-2.1,15.7c1.3,0,4.5-3.7,9.3-11.1c2.5-3.8,4.8-6.8,5.2-6.5c1.2,0.7-4.7,11.7-9.5,17.8
			c-5,6.3-8.3,6.7-11.1,1.3c-1.4-2.6-1.4-6-0.1-12.7c0.4-2.3,0.1-2-3.3,3.1c-4.3,6.5-7.7,9.6-10.2,9.6c-2.2,0-4-2.1-4.7-5.1
			c-0.5-2.4-0.5-2.4-5.3,4.7c-6.3,9.3-11.4,13.9-15.2,13.9C273.4,204.7,272,204.2,270.9,203L270.9,203z M188.5,179.4
			c4.7-6.4,4.9-6.7,4.4-10c-0.3-1.9-0.6-3.6-0.8-3.9c-0.8-1.3-2.6-0.4-4.4,2.4c-3.8,5.7-7.1,18.1-4.8,18.1
			C183.3,186,185.8,183,188.5,179.4L188.5,179.4z M308.6,179.1c4.9-6.6,4.8-6.5,4-11c-0.8-4.2-2.5-4.2-5.2,0
			c-1.9,2.9-4.3,9.4-5,13.3C301.1,187.8,302.6,187.2,308.6,179.1L308.6,179.1z M259.6,170.4c2.2-2.4,3.3-6.1,2.2-7.7
			c-0.6-0.9-0.9-0.9-2.2,0.2c-1.5,1.3-6.1,10.3-6.1,11.8C253.5,175.7,257,173.3,259.6,170.4z M287.6,155.9c2.7-4.5,6.1-10.8,7.6-14
			c2.7-5.9,4.1-12.3,2.8-12.3c-1.1,0-3.7,3.1-5.5,6.7c-3.1,6.2-11,27.9-10.1,27.9C282.6,164.2,284.9,160.5,287.6,155.9L287.6,155.9z
			 M229.5,154.7c7.2-7.6,10.6-12.7,12.1-18.1c1.7-6,1.8-10.6,0.3-12.6c-1-1.4-1.2-1.4-3.7,1.1c-2.7,2.6-7.1,11.9-12.1,26
			c-1.3,3.7-2.7,7.4-3,8.2C222.1,161.5,224.8,159.6,229.5,154.7L229.5,154.7z M287.2,138.9c0.9-1.5,1.5-2.8,1.3-3
			c-0.1-0.1-1,1.1-2,2.7C284.5,142.4,285.1,142.6,287.2,138.9L287.2,138.9z M139.4,199.2c-4.2-1.4-5.7-4.1-5.8-10.8
			c-0.1-4.6,0-5.1,0.4-2.8c0.3,1.7,0.6,2.3,0.7,1.4s0.3-2.7,0.5-4.1c0.3-1.9,0.2-2.2-0.3-1.4c-0.4,0.6-1,0.9-1.2,0.7
			c-0.5-0.5,1.6-13.1,2.3-14.5c1.6-2.9-1.8,1.9-6.6,9.3c-9.2,14.1-11.5,16.1-15.4,12.9c-5.3-4.4-6.3-9.2-4.1-18.7
			c2.8-11.9,14.2-32.6,20.8-37.6c4.5-3.4,9.9-2.6,15.9,2.5c2.5,2.1,3,3.9,1.4,5.4c-1.7,1.7-3.4,1-4.6-2.1c-0.7-1.8-1.7-3-2.4-3
			c-4.2,0-10.4,6.4-15.4,15.8c-4,7.5-4.8,8.5-2.3,2.6c0.8-2,1.4-3.7,1.2-3.8c-0.6-0.6-5,10.4-6.5,15.7c-0.8,3-1.7,8.2-1.9,11.6
			c-0.4,5.2-0.3,6.2,0.6,6.2c2,0,8.7-8.3,18.6-23.2c5.4-8.1,10.3-15.1,10.9-15.4c1.1-0.6,3.3,0.3,4.7,1.9c0.7,0.8,0.4,1.8-1.4,4.5
			c-3.6,5.4-7.2,16.5-8.6,26.2c-0.6,4.7-1.3,9.3-1.5,10.3c-0.4,2.3,0.9,6.1,2.1,6.1c0.5,0,2.1-1.4,3.7-3.2l2.8-3.2l0,2.3
			c0,2.8-2.9,7.9-4.9,8.7C142.6,199.8,140.8,199.7,139.4,199.2L139.4,199.2z M341.4,175.4v-21.8l-19.7-0.2l-19.7-0.2l20.1-0.2
			l20.1-0.2v22.2c0,12.2-0.2,22.2-0.4,22.2S341.4,187.4,341.4,175.4L341.4,175.4z M97.4,173.7l-0.2-20.8l6.6,0.2l6.6,0.2l-6.2,0.3
			l-6.2,0.3l-0.2,20.4l-0.2,20.4L97.4,173.7z"/>
		<path id="path863" inkscape:connector-curvature="0" class="st6" d="M272.1,203.9c-3.7-2.1-4.7-11-2.4-21.1
			c0.7-2.9,1.1-5.4,0.9-5.6c-0.3-0.3-4.4,4.7-9.4,11.4c-1.3,1.8-3.7,4.1-5.3,5.1c-2.7,1.8-3.1,1.8-5.8,1c-1.6-0.5-3.5-1.8-4.2-2.8
			c-1.3-1.7-1.3-2.2-0.3-6.4c1.4-5.6,1.5-8.8,0.3-7.1c-0.7,0.9-0.7,0.8-0.4-0.5c0.5-2.5-1-1.5-5.9,4c-8.5,9.5-9.8,10.7-11.9,11.2
			c-1.6,0.4-2.5,0.1-3.7-1.1c-1.5-1.5-1.5-1.6-0.2-3.1c0.7-0.8,1.8-1.3,2.3-1.1c1.2,0.5,6.7-6.9,6-8.1c-0.4-0.6-0.2-0.7,0.4-0.3
			c0.7,0.5,0.9,0.3,0.5-0.7c-0.3-0.8-0.2-1.1,0.2-0.8c0.4,0.3,0.8,0.2,0.8-0.1c0.6-6.2,0.3-7.2-1.8-6.6c-3.6,1.1-11,10.7-14.2,18.4
			c-1.5,3.5-2.8,4.4-4.7,3.1c-1.7-1.2-3.4-4.8-3.4-7.1v-2.5l-2.6,3.8c-3,4.4-6.7,7.8-8.6,7.8c-0.7,0-2.1-0.8-3.1-1.9
			c-2.3-2.4-2.8-8.9-1.2-14.1c1.4-4.5,0.5-4-3.6,2.3c-5.1,7.7-7.7,9.7-12.1,9.2c-1.3-0.1-2.6-3.6-2.6-7v-3.1l-2.7,3.2
			c-1.5,1.8-3.5,3.5-4.3,3.8c-1.9,0.7-5.3-0.9-6.4-2.9c-1.5-2.9-0.4-11.6,1.8-14.3c0.5-0.6,1.2-1.8,1.4-2.6c0.7-2.2-4.3,3.6-8.2,9.5
			c-1.8,2.8-3.7,5.3-4.1,5.5c-0.4,0.3-1.4-0.1-2.2-0.8c-2.3-2.1-1.8-7.1,1.4-15.7c2.5-6.5,3.1-7.5,4.7-7.7c1-0.1,2.3,0.3,2.9,1
			c0.8,1,0.8,1.5-0.5,2.9c-2.2,2.5-4.5,8-5,11.6c-0.5,3.9,0.3,4.1,2.5,0.4c3.3-5.3,10.4-13.6,12-14.2c1.3-0.4,2-0.1,3,1.1
			c2,2.4,1.7,3.7-1.8,8.3c-1.7,2.3-3.7,5.5-4.4,7.1c-1.4,3.1-1.2,7.1,0.3,7.1c0.5,0,3.1-1.8,5.8-4.1c3.5-2.9,5.5-5.3,7-8.2
			c1.1-2.3,3.4-5.3,5.1-6.8c4.7-4.1,8.2-3.4,10.3,2.1l0.8,2.1l2.2-1.6c2.4-1.8,5.6-1.6,6.4,0.5c0.2,0.6-0.4,3-1.4,5.3
			c-1.9,4.3-4,15.7-3.1,16.7c0.9,0.9,3-0.9,7-6.2c3.2-4.3,4.1-6.2,5.2-10.8c1.6-7.1,6.7-22.2,8.6-25.3c0.8-1.3,1.2-2.5,0.9-2.8
			c-0.3-0.3-0.1-0.5,0.4-0.5c0.5,0,0.7-0.3,0.5-0.8c-0.3-0.4-0.1-0.8,0.4-0.8c0.5,0,0.7-0.5,0.4-1.2c-0.3-0.8-0.1-1,0.4-0.6
			c0.6,0.4,0.7,0.1,0.4-0.8c-0.3-0.7-0.2-1.1,0.2-0.8c0.4,0.2,1.2-0.6,1.9-1.8c1.4-2.7,1.5-3.3,0.2-2.6c-0.5,0.3-0.7,0.3-0.3-0.1
			c0.3-0.4,0.9-0.7,1.3-0.7c0.4,0,2.2-2.4,4.1-5.3c2.3-3.5,2.7-4.5,1.3-3c-1.2,1.2-2.7,3.1-3.4,4.1c-1.3,1.8-1.3,1.8,0-0.7
			c0.7-1.4,2.8-4,4.5-5.8c2.5-2.6,3.7-3.3,5.7-3.3c4.3,0,5.4,2,5.4,10c0,6.8,0,6.9-3.7,13.4c-4.3,7.7-10.2,15.2-13.1,16.7
			c-1.1,0.6-3.3,2.2-4.7,3.6c-2.5,2.3-2.8,3.1-4.4,11.4c-0.9,4.9-1.5,9-1.4,9.2c0.2,0.2,1.3-1.1,2.4-2.9c5.5-8.4,11-13.4,14.8-13.4
			c2.6,0,3.5,1.4,4.1,5.9c0.2,2.1,0.7,3.8,1,3.8c1.7,0,6.9-4.9,8.4-7.9c2.4-4.9,6.8-9.2,9.8-9.7c3.3-0.6,6.4,0.6,7.5,3.1
			c1.8,3.9-3.4,10.5-11.1,14.4c-3,1.5-3.1,1.7-3.8,6.7c-0.4,2.8-0.6,5.7-0.4,6.4c1,3.9,7.3-0.8,15.6-11.5c5.7-7.4,6.3-8.5,10.1-19.1
			c4.2-11.8,6.5-16.8,10.8-23.7c7.1-11,8.7-12.4,12.1-10.2c4.2,2.7,4.2,7.6,0.1,16.6c-2.5,5.4-9.4,16.4-16.4,26.1
			c-4.9,6.8-7.4,15.4-7.1,24.6c0.2,6.1,0.3,6.4,2,6.6c1.2,0.2,2.6-0.5,4-1.9c3-2.9,13.2-18.1,17.2-25.8c3.4-6.5,7.5-10.5,10.9-10.5
			c1.7,0,4.8,2.6,4.8,4.1c0,0.4,0.3,1.3,0.7,1.9c0.6,0.9,1,0.8,2.5-0.6c2.1-1.9,4.8-1.9,6,0c0.6,0.9,0.3,2.3-0.9,5.3
			c-2.2,5.2-4.1,15.7-3.1,16.7c1.3,1.3,3.1-0.5,8.9-9c3.1-4.5,5.7-7.7,5.9-7.2c0.4,1.2-5.3,11.6-8.9,16.4c-3.7,4.8-6.6,6.2-9.3,4.5
			c-2.9-1.9-3.8-6.5-2.4-12.9c0.6-2.9,1-5.4,0.9-5.5c-0.1-0.1-1.6,1.9-3.3,4.5c-3.8,5.9-8.1,10.1-10.8,10.5
			c-2.4,0.4-3.2-0.4-4.6-4.3l-1-2.9l-2,3.5c-3.3,5.6-10.7,14.4-13.5,16.2C276.8,204.9,274.2,205.1,272.1,203.9L272.1,203.9z
			 M271.7,181.1c0.3-1.7,0.2-2.5-0.2-1.9c-0.3,0.6-0.8,2.6-1.1,4.5C270,187.8,271.1,185.4,271.7,181.1L271.7,181.1z M188.7,179.2
			c4.5-5.9,4.7-6.4,4.4-9.6c-0.6-6-3-6.2-6.3-0.5c-3.7,6.5-6.2,17.4-3.8,16.7C183.6,185.6,186.1,182.7,188.7,179.2L188.7,179.2z
			 M308.9,178.8c4.1-5.7,4.7-7,4.3-9c-0.9-4.6-1.2-5-2.9-4.8c-3,0.4-10,17.5-8.3,20.3C302.8,186.7,304.1,185.5,308.9,178.8
			L308.9,178.8z M259.3,170.6c2.2-2.4,3.1-4.1,3.1-5.6c0-5.1-3.3-3.1-6.8,4.1c-1.2,2.6-2.2,5-2.2,5.5
			C253.5,176,255.9,174.4,259.3,170.6L259.3,170.6z M287,157.2c8.8-14.2,13.9-27.6,10.6-27.6c-2.4,0-7.7,10.7-13.1,26.6
			c-1.4,4.1-2.5,7.6-2.5,7.7C282,164.9,283.3,163.2,287,157.2L287,157.2z M226.9,157.6c6.2-5.6,12.9-14.8,14.5-20.1
			c1.8-5.8,2-11.4,0.5-13.5c-1-1.4-1.1-1.4-3.5,0.8c-3.1,2.9-5.6,7.9-10.7,21.4C221.5,162.4,221.5,162.4,226.9,157.6L226.9,157.6z
			 M288.2,137.6c0.8-1.6,1.1-2.7,0.7-2.4c-0.5,0.3-1.7,2.3-2.7,4.4C284,143.9,285.8,142.2,288.2,137.6z M137.5,198.6
			c-2.1-1.2-4.2-6.6-4.1-10.4l0.1-3.4l0.6,2.6c0.3,1.5,0.6,2,0.7,1c0.1-0.9,0.3-3.2,0.5-5.3c0.2-2,0.2-3.3-0.1-2.7
			c-1.9,4-1.2-5.4,0.8-11.4c0.6-1.6,0.9-3.1,0.8-3.2c-0.1-0.1-3.2,4.4-6.8,10c-7.2,11.1-10.7,15.3-12.8,15.3c-2.1,0-6.9-5.4-7.8-8.8
			c-0.6-2.4-0.6-4.4,0.3-9c1.2-6.3,4.7-16.1,5.8-16.1c0.3,0,0.6-0.4,0.6-0.9c0-1.7,5.5-11.6,9.3-16.6c2.1-2.8,5.3-6,7-7
			c2.9-1.7,3.4-1.8,6.6-1c4.2,1.1,10.2,5.4,10.2,7.5c0,0.8-0.7,1.8-1.6,2.3c-2,1.1-3.4,0-4-3c-1.2-6-10.8,0.3-16.4,10.7
			c-1.3,2.4-2.5,4.2-2.7,4c-0.2-0.2,0.2-1.4,0.9-2.6c0.7-1.3,1-2.3,0.8-2.3c-0.8,0-5.6,10.5-7.5,16.4c-2.4,7.7-3.5,19.6-1.7,19.6
			c2.2,0,10-9.8,19.3-23.9c8-12.2,9.7-14.3,11.3-14.4c2.2-0.1,3.7,1.2,3.7,2.9c0,0.6-1,2.6-2.2,4.4c-3.7,5.4-6.6,15-8.3,26.7
			c-2.1,14.9-0.8,18.3,4.8,11.6c2.3-2.8,2.7-3,2.7-1.5c0,2.6-2.3,7.7-3.8,8.5C142.7,199.7,139.3,199.6,137.5,198.6L137.5,198.6z
			 M243.8,186.7c0-1,0.2-1.5,0.4-0.9c0.2,0.5,0.2,1.4,0,1.9C244,188.2,243.8,187.7,243.8,186.7L243.8,186.7z"/>
	</g>
</g>
</svg>
